<?xml version="1.0" encoding="UTF-8"?>
<svg width="318px" height="75px" viewBox="0 0 318 75" version="1.1" xmlns="http://www.w3.org/2000/svg" xmlns:xlink="http://www.w3.org/1999/xlink">
    <!-- Generator: Sketch 59.1 (86144) - https://sketch.com -->
    <title>Dylan Signature</title>
    <desc>Created with Sketch.</desc>
    <g id="GQ-Editor's-Club-Home" stroke="none" stroke-width="1" fill="none" fill-rule="evenodd">
        <g id="GQ-Editors-Home" transform="translate(-1081.000000, -1843.000000)">
            <g id="Main-Dylan-letter" transform="translate(1080.000000, 1296.000000)">
                <g id="Dylan-Signature" transform="translate(1.000000, 547.000000)">
                    <path d="M104.790537,44.2717838 C104.824339,44.2753835 104.85814,44.2794973 104.891942,44.2825827 C104.927793,44.0804891 104.963643,43.877367 104.999493,43.6747591 C104.950327,43.6685883 104.900649,43.6619033 104.851483,43.6562467 C104.831509,43.8614258 104.811023,44.0666048 104.790537,44.2717838 M105.881924,47.5099101 C106.35771,47.1103509 106.823252,46.7462738 107.258066,46.3477431 C108.101062,45.5748507 108.981444,44.8328122 109.746593,43.9868986 C110.925558,42.6848603 111.97034,41.2732902 112.780558,39.6976798 C113.55851,38.1837774 113.86119,36.5767987 113.7731,34.8885713 C113.748517,34.4211333 113.613822,34.255036 113.15545,34.2041269 C112.797459,34.1640167 112.39491,34.1331627 112.071745,34.2560645 C111.141172,34.6103711 110.20599,34.9847329 109.509468,35.7550541 C109.003978,36.3135114 108.458029,36.8416288 108.00068,37.4381393 C107.5546,38.0187085 107.120298,38.6167617 106.685484,39.2035017 C106.316738,39.6987083 106.042739,40.2350535 105.747742,40.7575144 C105.382068,41.4059624 105.094753,42.1099476 105.110629,42.900324 L105.419967,42.2914719 C105.453256,42.5367611 105.410748,42.7537675 105.349803,42.9656316 C105.076316,43.9190199 104.954936,44.894006 105.050708,45.8787625 C105.109093,46.4829864 105.196158,47.1129221 105.881924,47.5099101 M52.3901158,40.3558983 C52.6548963,39.6436853 53.3104458,39.2240711 53.3959745,38.4604348 C53.4179968,38.2655405 53.550131,38.0845304 53.6233682,37.8942641 C53.7145305,37.6577169 53.8922459,37.4623083 53.774964,37.1475976 C53.7268221,37.0190393 53.9470457,36.6374783 54.0581818,36.6318217 C54.3700799,36.6153662 54.4008088,36.3885894 54.5114328,36.2152928 C54.8520112,35.6815188 55.1910532,35.1467163 55.5213886,34.6062573 C55.8240681,34.1120792 56.0780935,33.5834475 56.4196962,33.1190949 C56.7766633,32.6326304 57.1566771,32.1081125 57.2529609,31.557883 C57.4301641,30.5407298 58.1994104,29.9447336 58.6618801,29.1389302 C59.1458599,28.9975161 59.2785062,28.5125942 59.58221,28.1947982 C59.6795181,28.09298 59.897181,28.0292151 59.6385463,27.8713455 C59.6923218,27.7859828 59.7338058,27.6399406 59.8029458,27.6250278 C60.3248246,27.5144677 60.4513251,27.0439443 60.741713,26.7045504 C61.0111029,26.390354 61.1560407,25.9774247 61.5406639,25.7290501 C61.7613997,25.5866075 61.8684386,25.2271586 61.9683074,24.9448445 C62.1286098,24.4902624 62.3114466,24.13647 62.8369104,23.9564884 C63.1406142,23.8520991 63.3567406,23.4607676 63.5882315,23.1789679 C63.7797749,22.9465345 63.9313707,22.6817044 64.1106225,22.4384721 C64.181811,22.3423105 64.3272611,22.2811168 64.3595264,22.1787844 C64.489612,21.761227 64.880893,21.593587 65.1420885,21.3030453 C65.3034151,21.1235779 65.4678146,20.9471959 65.6260684,20.7646431 C65.6921354,20.6880224 65.7274737,20.5671776 65.8073687,20.5219251 C66.2324516,20.281264 66.4654789,19.8853044 66.708237,19.485231 C66.7978629,19.3381603 66.8613693,19.233771 66.8787823,19.0409336 C66.8946589,18.8650658 67.1835104,18.6022927 67.3750537,18.5806949 C67.691049,18.5446986 67.9235642,18.3642027 68.0085808,18.1636518 C68.2569726,17.5799972 68.9099612,17.4462965 69.2244201,16.9521185 C69.3391412,16.7721369 69.5132716,16.62918 69.6638431,16.4728532 C69.9327208,16.1931103 70.1852097,15.8938266 70.4796948,15.6439093 C70.9032412,15.2839461 71.2561112,14.880273 71.4809441,14.3680968 C71.5633999,14.1798875 71.6765846,14.0976102 71.9055148,14.0225321 C72.3229154,13.8857461 72.6998563,13.5802916 72.8432578,13.1215956 C72.9144463,12.895333 73.0803823,12.8480236 73.224808,12.7215222 C73.6806197,12.321963 74.249104,12.0900439 74.6849419,11.675572 C75.1545816,11.2292176 75.6083447,10.7653793 76.0687658,10.3097687 C76.0979582,10.2804574 76.1230535,10.2424041 76.1583917,10.2254344 C77.0269947,9.80273477 77.5995761,9.03087079 78.2996824,8.40813443 C78.5275882,8.20552656 78.8005631,8.05588471 79.0443456,7.87024654 C79.6189756,7.43417681 80.2781101,7.10403912 80.7231667,6.50650018 C80.7820637,6.42730827 80.873226,6.37074263 80.9546575,6.31109158 C81.1067655,6.20053145 81.3152097,6.1470512 81.2563127,5.86885106 C81.2424847,5.80405768 81.399202,5.67138552 81.5016316,5.61996221 C81.9062285,5.41786857 82.1725455,4.94323136 82.7610035,5.07590352 C82.9438403,5.11704217 83.2096451,4.83267123 83.423723,4.67840128 C83.8011761,4.4058577 84.150461,4.08909007 84.5437906,3.84431509 C85.1271272,3.48178071 85.7304375,3.16861271 86.2886788,2.74745575 C86.8863555,2.29647326 87.6448467,2.06095447 88.3341979,1.73338794 C88.4263845,1.68967813 88.5416178,1.67939346 88.6163914,1.61768548 C89.5607923,0.834508372 90.7100524,0.583048354 91.8649461,0.348043798 C92.4615985,0.227199004 93.0577387,0.081156785 93.6620734,0.0235626705 C94.8594753,-0.0905970921 95.9534234,0.206629677 96.8962879,0.990321021 C97.0970499,1.15693257 97.3428809,1.27366349 97.5272542,1.45467357 C98.0450358,1.9637644 98.2247998,2.65026568 98.4014908,3.32031149 C98.6939273,4.4274555 98.634006,5.56082539 98.5571838,6.68802449 C98.4419505,8.37059541 98.0696189,10.0073996 97.6757771,11.6421468 C97.5011347,12.3692725 97.1779693,13.0732577 97.2481335,13.850264 C96.9167738,14.2467378 97.0816855,14.7697129 96.9065308,15.2042399 C96.7580079,15.5739736 96.5879748,15.9354795 96.4128202,16.3329817 C96.626898,16.5181057 96.5024461,16.7880781 96.3313887,16.9824582 C96.0287092,17.3275087 95.9800551,17.7548364 95.8407509,18.157481 C95.6512561,18.7025682 95.5964563,19.2769666 95.3362851,19.8148545 C95.0090226,20.4910711 94.8251614,21.2382519 94.5911098,21.9581783 C94.3452788,22.7166722 94.1204458,23.481337 93.8756391,24.2393166 C93.5990792,25.0944864 93.2958875,25.9404 93.0352042,26.7996836 C92.954797,27.0650279 92.9419933,27.3627689 92.9573577,27.643026 C92.9757951,27.9911618 92.5783682,28.2333656 92.743792,28.6041277 C92.4872059,29.2386915 92.4677443,29.9637602 91.9863251,30.5160467 C91.8772376,30.6410053 91.6462589,30.8374424 91.9653271,31.0508491 C92.0144933,31.0832458 92.0093718,31.458636 91.7348605,31.522401 C91.4536912,31.5871943 91.4808351,31.734265 91.6042628,31.9332733 C91.8055369,32.2592971 91.7061802,32.5431538 91.3369215,32.7051372 C91.0357785,32.8378094 91.1223315,33.1319508 91.0880176,33.3880389 C91.1643276,33.2378828 91.2401255,33.0872125 91.3164356,32.9370564 C91.3502374,32.9452841 91.3840391,32.9529976 91.4178409,32.9607111 C91.4055493,33.1088103 91.4198895,33.2646229 91.3773812,33.4029516 C91.089554,34.3383418 90.7669008,35.262933 90.501096,36.2044939 C90.3192835,36.8483139 90.2076352,37.5132173 90.0703795,38.1698931 C89.9111015,38.9304439 89.7246796,39.6879094 89.6099585,40.4556595 C89.4798729,41.3231709 89.4429983,42.2040523 89.3149613,43.0720778 C89.1859,43.9478169 89.2908903,44.8204706 89.2775745,45.694667 C89.2581128,46.9931057 89.4061236,48.2786886 89.805599,49.5169621 C90.2834331,51.0005248 91.2165667,52.1184677 92.5799047,52.8862178 C93.8218635,53.5850607 95.0837962,53.4580451 96.3790184,53.0903684 C98.6094229,52.4583758 100.57095,51.2962089 102.474092,50.015254 C102.996995,49.6630043 103.518361,49.3102404 104.00439,48.9816454 C103.670981,48.3517098 103.347816,47.7901671 103.071768,47.2059983 C102.713777,46.4485328 102.625687,45.6314163 102.653343,44.8024724 C102.711216,43.0761917 103.169076,41.4666419 103.891205,39.89206 C105.034832,37.400086 106.617369,35.2768173 108.73254,33.5489939 C109.712279,32.7488471 110.772938,32.0736589 112.062526,31.963613 C112.806677,31.9003623 113.57746,31.9615561 114.279103,32.2654679 C115.205578,32.6675982 115.603517,33.505284 115.85447,34.413934 C116.04038,35.0875795 116.094667,35.7699669 115.933853,36.4754948 C115.8473,36.8565416 115.919,37.2746131 115.919,37.7045121 C116.838818,37.9873403 116.990926,38.7190941 116.96788,39.5377533 C116.957637,39.9069727 116.900788,40.2741352 116.881839,40.6428404 C116.841891,41.4399018 116.773775,42.2385059 116.790676,43.0350531 C116.808089,43.892794 116.873644,44.7536203 116.983244,45.6046762 C117.171202,47.0573849 118.028026,48.0632249 119.242329,48.7944645 C119.74321,49.0963194 120.318864,49.0896343 120.854058,49.0088997 C121.432274,48.9219943 122.019707,48.7538401 122.548244,48.5039228 C124.699778,47.4893407 126.555802,46.0577156 128.185969,44.3268068 C129.338814,43.1034461 130.399473,41.8122066 131.190741,40.3106458 C131.906724,38.9520417 132.667264,37.6170924 133.401172,36.2677446 C133.508211,36.0707933 133.578375,35.8537869 133.659807,35.6439798 C133.891298,35.049012 134.251338,34.8289202 134.890498,34.8942278 C135.740664,34.9816475 136.070487,35.262933 136.221571,36.0754214 C136.249227,36.2240348 136.193915,36.3999025 136.140139,36.5505728 C135.934768,37.1270282 135.741688,37.7101686 135.493809,38.2686259 C135.014438,39.347487 134.829041,40.5045117 134.568357,41.6394242 C134.330721,42.6745756 134.135592,43.7205259 133.962998,44.7685331 C133.871836,45.3208195 133.867739,45.8875044 133.89898,46.4701306 C134.281042,45.8252822 134.65952,45.1783769 135.045679,44.5355854 C135.634137,43.5544286 136.244618,42.5866417 136.814126,41.5941717 C137.310398,40.7307742 137.978751,40.0103336 138.644031,39.2904072 C139.658084,38.1935478 140.678283,37.0987454 141.754306,36.0641083 C142.474386,35.3719504 143.291262,34.7738973 144.208007,34.3522261 C144.899406,34.0339157 145.611292,34.1527036 146.292449,34.4021067 C146.451727,34.460215 146.588983,34.6751645 146.665805,34.8494895 C146.984361,35.5725014 147.10574,36.3330522 147.00792,37.1229144 C146.907026,37.9348885 146.790257,38.74532 146.702679,39.5593511 C146.596153,40.5543923 146.564912,41.5520046 146.750821,42.5444746 C146.803573,42.8252459 146.845569,43.1080742 146.907539,43.3867885 C147.32033,45.2457414 148.313897,46.7385603 149.80015,47.8950707 C151.509188,49.2248777 153.430768,50.0193679 155.619688,50.039423 C156.348475,50.046108 157.079822,49.9962274 157.807072,49.9355479 C158.658774,49.8640695 159.505355,49.7365397 160.357569,49.6681467 C160.63208,49.6465489 160.916322,49.734997 161.24,49.7787068 C161.104281,50.13867 160.900446,50.3165947 160.613643,50.4616084 C160.246433,50.6477608 159.940168,50.9861263 159.55913,51.1059426 C158.92253,51.307522 158.252641,51.420139 157.588897,51.5101299 C156.824772,51.6134907 156.051941,51.6525724 155.283207,51.7168516 C155.079884,51.7338213 154.875025,51.7579902 154.672214,51.750791 C153.440498,51.7075954 152.267167,51.4309379 151.129687,50.9388168 C149.86673,50.3927012 148.649866,49.7869345 147.577428,48.9045104 C146.834814,48.2936014 146.285279,47.5335648 145.822809,46.7123344 C144.852801,44.9896533 144.3089,43.1384139 144.269977,41.1478173 C144.24693,39.9352555 144.319655,38.7304072 144.49737,37.5307013 C144.525538,37.340435 144.501467,37.1414268 144.501467,36.9028226 C143.480756,37.5137316 142.646467,38.2213164 141.913071,39.0466606 C141.492598,39.5197551 141.103878,40.0211325 140.694159,40.5045117 C140.283929,40.9868624 139.856797,41.4548145 139.454761,41.9438503 C139.223782,42.2235931 139.027118,42.5316188 138.791017,42.8612423 C138.738266,42.7625095 138.704464,42.6992588 138.635324,42.5707005 C138.455048,42.9214075 138.291161,43.2345755 138.132395,43.5503147 C138.013577,43.7863477 137.902953,44.0259804 137.787207,44.2635561 C137.655073,44.5330143 137.449702,44.7921878 137.413851,45.0729591 C137.390805,45.2565403 136.942675,45.0935284 137.194652,45.42778 C137.257646,45.5110857 137.059957,45.7841436 136.994914,45.9749241 C136.686089,46.8758606 136.18316,47.672922 135.681255,48.4725545 C135.398549,48.9225086 135.141963,49.3914892 134.904838,49.8676691 C134.683078,50.312995 134.32099,50.6117645 133.914344,50.842141 C133.294645,51.1933622 132.606318,50.9840693 132.215549,50.3633899 C131.78176,49.673289 131.543611,48.9106812 131.488811,48.1012782 C131.413013,46.9735649 131.397649,45.8448231 131.570755,44.7207094 C131.609166,44.4677067 131.598923,44.2069904 131.615824,43.8423991 C131.096506,44.4476516 130.663229,44.9711409 130.206393,45.474061 C130.03892,45.6581564 129.805381,45.7810582 129.619983,45.9512693 C128.96341,46.5534364 128.335004,47.1885143 127.659481,47.7675409 C126.101015,49.1035186 124.407341,50.2122053 122.447351,50.8843081 C121.227414,51.3023797 120.027964,51.1511951 118.828513,50.8616818 C117.642378,50.5762824 116.761484,49.8306443 116.016309,48.892683 C115.034009,47.6569807 114.505472,45.8458515 114.459379,44.5047314 C114.058367,44.7762466 113.796659,45.1624357 113.674768,45.6190747 C113.638918,45.7522611 113.57029,45.886476 113.483737,45.9934365 C113.055581,46.519497 112.626913,47.046586 112.176735,47.5536199 C111.908882,47.8549605 111.691219,48.2252084 111.252308,48.3321689 C111.180607,48.3496528 111.105834,48.4190743 111.063838,48.4848961 C110.676654,49.0916913 109.980645,49.2629309 109.442889,49.6558051 C108.715127,50.1880364 107.875716,50.3196801 107.013259,50.3381925 C106.672169,50.3453917 106.323908,50.2811126 105.988451,50.2050061 C105.78564,50.1592393 105.645824,50.1880364 105.482449,50.3093954 C104.975422,50.6863283 104.464299,51.0581189 103.937811,51.406769 C102.916587,52.0819571 101.91585,52.7967412 100.846997,53.3875951 C99.942032,53.8874298 98.9633172,54.2602488 97.9984303,54.6418098 C97.4125331,54.8732148 96.7836153,54.9940595 96.1879872,55.2028382 C95.5508751,55.4260154 94.9050565,55.4270439 94.2556529,55.3473377 C93.6482454,55.2732882 93.0490322,55.1262175 92.4411126,55.056796 C91.4449847,54.9426362 90.7105645,54.355382 90.0232619,53.7161901 C88.421263,52.2254282 87.531662,50.3690465 87.1936443,48.197954 C86.7982661,45.6535283 86.9099143,43.1322431 87.2837823,40.602216 C87.5874861,38.546826 88.0858061,36.5408024 88.6696548,34.5512343 C89.0215005,33.3525568 89.300109,32.1327957 89.6529789,30.9351467 C89.9249295,30.0131266 90.276263,29.1147613 90.5666509,28.1978835 C90.9497376,26.9884071 91.2990226,25.7681318 91.6800607,24.5581412 C92.0242241,23.4653957 92.3996286,22.3824207 92.7478892,21.2907037 C93.151974,20.0220905 93.5386457,18.7478207 93.9386333,17.4776648 C94.2151932,16.600383 94.5101904,15.7287578 94.7806046,14.8494191 C95.370599,12.9297866 95.9093787,10.9962699 96.2678823,9.01750073 C96.4793994,7.84813451 96.7242062,6.67516866 96.6837465,5.48163348 C96.6591634,4.74885122 96.512689,4.01864013 96.3943829,3.29202867 C96.3667269,3.12027479 96.2658337,2.93052275 96.1408696,2.81019219 C95.6609869,2.34892504 95.1237437,2.01878735 94.4144187,2.01467349 C93.3414687,2.00850269 92.338683,2.27487547 91.3061926,2.54844751 C89.7799916,2.95417748 88.3884856,3.61805249 87.0446092,4.39043071 C85.4928008,5.28262525 83.9333102,6.18664715 82.4957108,7.24699594 C80.7574806,8.52846499 79.1570181,9.99660067 77.4715391,11.3521193 C75.8751738,12.6366737 74.42221,14.0770408 72.9405659,15.4855255 C71.8619822,16.5119349 70.826419,17.584111 69.7688334,18.6331467 C69.3073881,19.0908142 68.8141896,19.5186562 68.3814245,20.0020354 C67.6347128,20.83715 66.9668718,21.747857 66.1873825,22.5495465 C64.8440184,23.931291 63.7142199,25.4853036 62.5234759,26.9884071 C61.5073743,28.2714189 60.551194,29.6053397 59.6190846,30.9521164 C58.7269228,32.2418132 57.9044132,33.5803621 57.0399074,34.890114 C56.9216012,35.0690671 56.9461843,35.2835023 56.8755079,35.4346869 C56.6783309,35.8573865 56.3848701,36.2358622 56.1206017,36.6256509 C56.0325123,36.7557519 55.8891109,36.8529419 55.8189466,36.9907564 C55.3452097,37.9194615 54.8847887,38.8563944 54.418734,39.7892133 C54.1565142,40.3142454 54.0341109,40.9050993 53.6499999,41.3725372 C53.563959,41.4774408 53.5158171,41.6270827 53.4881611,41.7643829 C53.4425799,41.9880743 53.4758696,42.2390201 53.387268,42.4390568 C53.2914963,42.6540063 53.0256915,42.8005627 52.9529665,43.0175691 C52.7173784,43.7153835 52.5135435,44.4260538 52.3404375,45.1423806 C52.0526103,46.3359157 51.7448094,47.5135097 51.2377829,48.64328 C51.0406059,49.0829493 50.7732646,49.5015351 50.6457398,49.9684588 C50.4961926,50.5140602 50.3968359,51.0735459 50.2826269,51.6278892 C50.1428105,52.308734 50.006067,52.9900929 49.8764935,53.6724803 C49.853959,53.7912682 49.8739328,53.9177695 49.8744449,54.040157 C49.9312933,54.0375859 49.9886539,54.0350147 50.123861,54.0293581 C50.0695733,54.6207263 50.0122127,55.2434626 49.95434,55.866199 C49.5855935,56.1495415 49.625541,56.5501291 49.7443593,56.9018646 C50.1008143,57.9601564 49.9656073,59.0647293 50.0921078,60.1430762 C50.3010642,61.920266 50.6964424,63.6480895 51.3151172,65.3244896 C51.5629968,65.9965923 51.7888541,66.6784655 52.0771934,67.3325701 C52.2907591,67.8169777 52.5478574,68.2936719 52.8587312,68.7199712 C53.4937947,69.5915964 54.038208,70.5377854 54.9098839,71.2217155 C55.7549281,71.8845621 56.675258,72.3370873 57.7599874,72.3725694 C58.5722542,72.398281 59.3292089,72.1277944 60.0615805,71.8202829 C61.5831722,71.1821196 62.8937589,70.2297598 64.1198411,69.1215873 C65.3761401,67.9861605 66.4122155,66.688236 67.3883696,65.312148 C68.3291854,63.9854264 69.1742296,62.6062531 69.8958461,61.157144 C70.7449875,59.4529753 71.5372804,57.7194953 72.0571106,55.8744267 C72.4238086,54.5734168 72.8765474,53.2950332 73.2068828,51.9847671 C73.5868966,50.4765212 73.8783088,48.9456491 74.1994256,47.4219762 C74.2793207,47.0424721 74.3341205,46.656283 74.3848232,46.2706081 C74.5584414,44.9510858 74.7259138,43.6310493 74.892874,42.3110128 C74.903117,42.2313066 74.8857039,42.1485151 74.875461,41.967505 C74.7300109,42.1366877 74.6142655,42.234392 74.5441012,42.357808 C73.5070015,44.1843642 72.1912934,45.7985421 70.7808378,47.3402131 C69.9634496,48.2329219 69.0922859,49.0680366 68.0516012,49.6964295 C67.6690267,49.9273202 67.2598204,50.1396985 66.8352497,50.2713422 C65.7336194,50.6122787 64.6980562,50.3896158 63.7469974,49.7643083 C62.6848025,49.0654654 62.0087671,48.0549972 61.4976434,46.9113427 C60.7847334,45.3141344 60.4661774,43.6403055 60.4077925,41.8960266 C60.3688693,40.7276888 60.2869256,39.5542088 60.1163803,38.3987268 C60.0154872,37.713254 60.5107343,37.0843469 61.3562906,37.4355681 C61.6144132,37.5420144 61.907874,37.6088647 62.1168304,37.7790759 C62.4799433,38.07476 62.6182232,38.4928315 62.6120775,38.9777534 C62.6002981,39.8401224 62.6305148,40.7035199 62.6397335,41.5653747 C62.6545857,42.8663846 62.8348618,44.1493963 63.1657094,45.4000114 C63.3091109,45.9435558 63.6163997,46.4505897 63.8965446,46.9478532 C64.1894933,47.4687714 64.6913983,47.7659982 65.2358116,47.9608925 C65.4550109,48.039056 65.7402774,48.0848227 65.9476973,48.0107732 C66.462406,47.8282204 66.9976007,47.6358972 67.4365115,47.3232434 C68.303578,46.7046209 69.047729,45.9312142 69.7048149,45.0930142 C70.6020982,43.9478169 71.521916,42.8103332 72.300893,41.585944 C72.9574668,40.5543923 73.4434952,39.4107377 73.9751048,38.302051 C74.3464121,37.5276159 74.6762354,36.7320972 75.0081073,35.9391496 C75.221673,35.4285161 75.4111678,34.9065694 75.5970775,34.3841085 C75.6503409,34.2334382 75.6641689,34.0647697 75.6769726,33.9027863 C75.7107743,33.4728874 75.9847735,33.1401785 76.401662,33.0409315 C77.2677042,32.834724 78.222348,33.6251004 78.1265764,34.5054676 C78.0400234,35.2973866 77.8710145,36.0795353 77.7783157,36.8709401 C77.6682039,37.8094156 77.6093069,38.7535477 77.5114866,39.6930517 C77.464369,40.1512335 77.5304361,40.6392407 77.1903699,41.0377714 C77.1309607,41.1082214 77.1386429,41.2923169 77.1857605,41.3889927 C77.3824254,41.7885519 77.35016,42.218965 77.2364632,42.5958979 C77.0377498,43.2556591 77.1171327,43.9298188 77.0162395,44.5895799 C76.899982,45.350645 76.7770664,46.1096532 76.5870595,46.8640332 L76.5870595,46.3472289 C76.5476241,46.3451719 76.5071644,46.343115 76.4677291,46.3410581 C76.4513403,46.550351 76.3504472,46.8069533 76.4349516,46.9596806 C76.6244463,47.3037026 76.4912879,47.5952728 76.387834,47.886843 C76.1773411,48.4792396 76.1307357,49.0819208 76.1481487,49.7031145 C76.1660739,50.3669895 75.9688969,50.9732704 75.5842738,51.5929214 C75.8772224,52.1714337 75.5284496,52.7756577 75.3681473,53.3685685 C74.8534386,55.2671174 74.3295112,57.1738939 73.484467,58.9531407 C73.0727001,59.8201378 72.7024171,60.7035904 72.3234276,61.5824149 C71.7646741,62.8782824 71.1209041,64.1283833 70.345512,65.2992922 C69.3616758,66.7843976 68.3317462,68.2437913 67.1174433,69.5540574 C66.6728988,70.0333227 66.1822611,70.475049 65.6752346,70.8890067 C64.8849902,71.5343693 64.0711871,72.153506 63.2486774,72.7582442 C62.9552166,72.9731937 62.6197597,73.145976 62.281742,73.2832763 C61.3737036,73.650953 60.4677138,74.0319998 59.5350924,74.3240842 C58.817573,74.5488041 58.0667641,74.5421191 57.3000786,74.4896673 C55.4471271,74.3616232 53.9588251,73.49874 52.7639839,72.1879597 C51.6505741,70.9671701 50.7046368,69.595196 50.1458834,67.9949024 C49.8222058,67.06774 49.3945623,66.1770882 49.0713969,65.2499258 C48.5305686,63.700027 48.1597735,62.1048758 47.9195761,60.4793847 C47.8698977,60.142562 48.1003643,59.8921304 48.0983157,59.5481085 C48.095755,59.0904409 48.189478,58.6620847 48.0655382,58.1751059 C47.9282826,57.6351611 48.0076655,57.0324798 48.0363458,56.4591098 C48.0788541,55.6044543 48.144409,54.7497988 48.2299377,53.8982287 C48.2673245,53.5269523 48.3784607,53.1633895 48.3846064,52.7262913 C48.1556763,52.941755 47.9385255,53.1726457 47.6952552,53.3701112 C46.3426724,54.4721129 44.8999515,55.4321862 43.351216,56.241075 C41.3297679,57.2967957 39.2243276,58.1437377 37.0313099,58.7371628 C34.8034662,59.3403583 32.5607701,59.9142425 30.238179,60.0407438 C28.7473162,60.1214784 27.2554292,60.2762626 25.7661028,60.2587787 C24.4037892,60.2428375 23.0419877,60.0535997 21.6827469,59.9157852 C19.246459,59.6674105 16.8921147,59.0467311 14.6053739,58.1941325 C13.3828767,57.7385219 12.1808654,57.1985771 11.0331417,56.5794404 C8.84626983,55.3992753 6.8458198,53.9424527 5.08198214,52.1755476 C3.83029246,50.9223613 2.78192554,49.4984497 1.84879191,48.0056308 C1.37864006,47.2522792 1.13741836,46.3523712 0.809643645,45.5121142 C0.683143093,45.1876331 0.610418079,44.8425826 0.500306262,44.5119307 C0.329248835,43.9961548 0.269327521,43.487064 0.366635638,42.9368345 C0.458310127,42.4200302 0.35844127,41.8841992 0.481356787,41.3540248 C0.58224994,40.9174409 0.701068272,40.4983409 0.84395756,40.0720416 C1.05291394,39.4477625 1.34227755,38.8749068 1.61166739,38.2845671 C2.08181924,37.2540438 2.71841919,36.3304811 3.50866353,35.5406189 C4.2651061,34.7846962 5.1178325,34.124935 5.94034216,33.4363768 C6.34596336,33.0974971 6.78948352,32.8043842 7.19459258,32.4644761 C7.62684548,32.1014275 8.14821212,31.9456149 8.66394515,31.7728325 C8.7008198,31.7604909 8.78327563,31.8839069 8.85702494,31.9564138 C9.18275105,31.8386544 9.53664531,31.7106103 9.92587778,31.5697104 C10.0098701,31.6684432 10.0953988,31.7692329 10.1686359,31.8556241 C10.1425164,31.9291594 10.1389313,31.9749261 10.1148604,32.003209 C9.73484658,32.4449353 9.13716988,32.6454862 8.83039324,33.1689756 C8.23578943,33.1535486 8.19123256,33.8014823 7.79073283,34.0431719 C7.37589296,34.2936035 7.02814448,34.6576806 6.65991008,34.9826759 C6.29218783,35.3066428 5.93214779,35.6398659 5.57518065,35.9761744 C4.87097717,36.639021 4.32758816,37.4324827 3.74271516,38.1971474 C3.05387612,39.0970555 2.65440069,40.1214079 2.3087008,41.1725005 C2.18732173,41.5427484 2.20063757,41.958763 2.16069003,42.3547226 C2.12381538,42.7295986 1.98143824,43.1163019 2.27489903,43.4613524 C2.30716435,43.4994056 2.31689517,43.5981384 2.29077562,43.6397913 C2.03265303,44.0480924 2.20371046,44.3489188 2.48283111,44.6687718 C2.62213536,44.8286983 2.67078942,45.075016 2.73788081,45.2894513 C3.03031731,46.2176421 3.52146723,47.046586 4.03259092,47.8611313 C4.4679167,48.5543176 4.93806855,49.2264204 5.41846336,49.8892669 C5.60693382,50.1499831 5.86556855,50.3597903 6.09091367,50.5937664 C7.60431096,52.1673198 9.28057132,53.5269523 11.2211,54.5420486 C11.43569,54.6541514 11.6369642,54.7950513 11.8356776,54.9349227 C12.6499929,55.5093212 13.6271713,55.7021586 14.5162602,56.1001751 C15.0125316,56.322838 15.4867806,56.6056663 15.9994407,56.774849 C16.5290018,56.9496883 17.0949253,57.0113963 17.6413872,57.1384118 C18.3338113,57.2988526 19.0159924,57.5194586 19.7150744,57.6331041 C20.475102,57.7570343 21.2494697,57.7899453 22.0182039,57.8588525 C22.2199902,57.8763364 22.4320194,57.8449682 22.6240749,57.8953631 C23.2975495,58.073802 23.9771699,58.1128837 24.6711304,58.0953998 C25.2385904,58.0810012 25.8080989,58.1715063 26.3760711,58.1653355 C27.1033212,58.1560793 27.8331321,58.126768 28.556285,58.0516899 C29.9385724,57.9077047 31.3234206,57.7678332 32.6949529,57.5487699 C35.2024294,57.1486965 37.6382053,56.4832788 39.9607964,55.4285866 C41.0194063,54.9482928 42.0764797,54.4731413 43.0808019,53.8771451 C44.6356832,52.9535823 46.1091329,51.9441426 47.2732453,50.5274303 C48.9525785,48.4838677 49.8324488,46.1245659 50.1146423,43.511233 C50.2754568,42.0261276 50.1315432,40.5698193 49.8611291,39.1073401 C49.5016012,37.1691953 49.023255,35.2613903 48.3630962,33.4122078 C47.6686235,31.4663495 46.8686484,29.5559733 46.0599667,27.6538249 C45.2354085,25.7136231 44.3447831,23.8022185 43.4828381,21.8784722 C42.7714645,20.2910344 42.0247528,18.7185094 41.3599847,17.1115307 C40.7110932,15.5426054 40.1344145,13.942826 39.5469808,12.3492174 C38.8146092,10.361192 38.408988,8.28883233 38.0115611,6.21492998 C37.9844173,6.07505856 37.9367875,5.93981523 37.8814756,5.74029277 C37.779046,5.84879596 37.6796892,5.91410358 37.6351324,6.00563708 C36.9611456,7.40640822 36.2815252,8.80512243 35.8671975,10.3143968 C35.7099681,10.8872525 35.3719504,11.3860587 35.1747735,11.9434874 C35.0523701,12.2905948 34.8475109,12.6397591 34.8434137,12.9894377 C34.8382922,13.4213936 34.6774778,13.7160492 34.4034786,13.9988774 C34.3522638,14.0523576 34.33229,14.1402915 34.3097555,14.2158838 C34.1043842,14.8998139 33.9128408,15.5883721 33.6962022,16.2687026 C33.1497403,17.9826417 32.5981569,19.6950382 32.0373549,21.4043492 C31.3935849,23.3671772 30.7078187,25.3171494 30.0978505,27.2907762 C29.7291039,28.4843114 29.1001862,29.559573 28.6735669,30.7222542 C28.4221023,31.4082412 28.2361925,32.1199399 27.7880631,32.7159361 C27.8080368,33.2368543 27.3435186,33.4574604 27.0976876,33.8081674 C26.8815611,34.1167073 26.3438057,34.0827679 26.0549543,33.7999396 C25.4332066,33.1905733 25.3415321,32.6711979 25.6867199,31.8350547 C25.787613,31.5913082 25.8352428,31.3254497 25.9320388,31.0796462 C26.1343372,30.5679842 26.3622431,30.0671211 26.5619808,29.5544306 C26.7453298,29.0849358 26.8861705,28.5984712 27.0797624,28.1336044 C27.542232,27.0223465 28.0308212,25.9218876 28.4963637,24.8126866 C28.6587146,24.4254691 28.7319518,23.9924847 28.9383474,23.6340642 C29.5201475,22.6230818 29.7296161,21.4640003 30.2561042,20.433477 C30.3826048,20.1856166 30.4123093,19.8889041 30.5009109,19.6199601 C30.7964203,18.7185094 31.092954,17.8175729 31.4022914,16.9212645 C31.5077939,16.6142673 31.6706569,16.3268109 31.7735987,16.0187853 C31.9159758,15.5955714 32.0148204,15.157959 32.1525882,14.7337166 C32.2724308,14.3650114 32.4690956,14.0158471 32.5474543,13.6404569 C32.7799695,12.5281705 33.3054333,11.5238732 33.6936415,10.4722664 C34.0926048,9.38929131 34.4096244,8.29397466 34.6447003,7.1703752 C34.757885,6.63043037 34.8352193,6.08122935 34.9038472,5.53357103 C34.9325275,5.30216611 34.9151144,5.0244802 35.1942351,5.00545357 C35.3417337,4.99568314 35.5035725,5.19623408 35.699213,5.32890623 C35.7929361,5.18440671 35.9260945,5.02807983 36.0070139,4.84758399 C36.3762726,4.02686786 36.7342641,3.2010094 37.0886705,2.37360823 C37.2551186,1.98484796 37.6197679,1.80280942 38.1032356,1.90154219 C38.301949,1.94268084 38.5068082,1.9838195 38.6896451,2.06661104 C38.8263886,2.12883325 38.9728629,2.23476528 39.0466122,2.36178087 C39.4204802,3.0040581 39.6719449,3.6972444 39.8097127,4.4289982 C40.0570802,5.73823583 40.2936926,7.05004464 40.5425965,8.35928228 C40.9338775,10.4157007 41.4772666,12.4268666 42.3166771,14.3500986 C43.1934745,16.3581792 44.0462008,18.3770586 44.9445084,20.3748544 C45.7327042,22.127361 46.5920885,23.847471 47.3772113,25.6015203 C48.0967793,27.2090132 48.7641081,28.8401608 49.4442406,30.4656518 C49.8426917,31.4200686 50.2349971,32.3775707 50.6006708,33.3448433 C50.7445843,33.7258901 50.7927263,34.1424189 50.9110324,34.5337504 C51.1399626,35.2901874 51.4124253,36.0332543 51.6183088,36.7953478 C51.7478823,37.2771843 51.7688803,37.7878178 51.8754071,38.2773678 C52.0213693,38.9458709 52.2026697,39.6061463 52.3901158,40.3558983" id="Fill-4" fill="#070707"></path>
                    <path d="M279.062582,46.0944842 C279.030138,46.0763916 278.965251,46.040709 278.879249,45.9929646 C278.295779,46.5181526 278.263335,47.1333009 278.536274,47.8313737 C279.278357,49.7315991 280.622451,51.1146778 282.375436,52.1570125 C284.140267,53.2053781 286.067315,53.8079622 288.103539,54.078346 C289.837471,54.3090266 291.579642,54.3326475 293.329538,54.2507283 C294.669512,54.1879067 295.968802,53.9170203 297.280451,53.6943808 C299.519576,53.3149388 301.658281,52.6068146 303.717679,51.7031898 C304.815612,51.2212231 305.858958,50.586977 306.847202,49.9110174 C308.678979,48.6565972 310.427845,47.2875906 312.257563,46.0306575 C313.465187,45.2009109 314.750057,44.4772069 316.009179,43.7198306 C316.292932,43.5499612 316.594194,43.520812 316.913996,43.7223435 C317.981031,44.3947851 317.904299,44.7234673 317.751865,45.8823987 C317.672044,46.4895059 317.446998,47.0825411 317.248732,47.6690429 C316.710064,49.260689 316.617368,50.8809817 316.787311,52.5404751 C316.859923,53.2516147 316.795551,53.977329 316.770832,54.6955046 C316.749203,55.3186942 316.367089,55.6202375 315.754265,55.5337951 C315.130626,55.4458449 314.768082,55.1116344 314.67796,54.4723626 C314.619768,54.0592483 314.619768,53.6370876 314.608953,53.2189476 C314.597624,52.7776892 314.630067,52.3344205 314.599684,51.8946698 C314.480209,50.1748678 314.706284,48.4932613 315.151225,46.8332653 C315.165645,46.7779824 315.15277,46.716166 315.15277,46.5518249 C314.251558,47.1433524 313.409054,47.6946741 312.56861,48.248006 C312.183406,48.501805 311.794082,48.7495731 311.420208,49.0184492 C311.125641,49.2310372 310.868151,49.4938825 310.566889,49.6964191 C309.48595,50.4241436 308.403466,51.150863 307.303472,51.8509461 C306.16743,52.57465 305.007184,53.2837794 303.732098,53.7320738 C302.582667,54.1366444 301.45023,54.6055442 300.226127,54.81964 C299.581374,54.9327187 298.942801,55.1548556 298.314527,55.3955877 C297.607462,55.665469 296.814396,55.7272853 296.055318,55.8609695 C295.696893,55.9242936 295.330229,55.9660071 294.966654,55.9710329 C294.784867,55.9735457 294.601534,55.8730313 294.370824,55.8046815 C294.22457,56.1976929 293.820312,56.0685319 293.427899,56.16 C293.438199,56.0268184 293.445923,55.9383657 293.452618,55.8458924 C293.423779,55.8293075 293.391336,55.7956352 293.361982,55.7971429 C292.769242,55.8277998 292.177017,55.860467 291.584792,55.8986625 C291.447808,55.9077088 291.292799,55.8157381 291.207313,56.0614959 C291.159935,56.1981955 290.994627,56.1434151 290.756707,55.9433914 C290.700059,55.8951445 290.617663,55.8524258 290.545051,55.8489078 C290.037282,55.8257895 289.527454,55.8202612 289.019685,55.79463 C288.824509,55.7845786 288.630877,55.7378394 288.45012,55.7101979 C288.435185,55.8006609 288.420251,55.8916265 288.405831,55.9820894 C288.335279,55.9604788 288.219924,55.9574634 288.201385,55.9147448 C288.042257,55.5453542 287.764684,55.582042 287.536548,55.780558 C287.342916,55.9494223 287.154434,55.9323348 286.966982,55.8845904 C286.052896,55.6524021 285.094006,55.5051484 284.251502,55.119173 C283.680906,54.8578355 283.057268,54.7533004 282.511906,54.4341671 C281.950579,54.1054849 281.308402,53.9019432 280.771279,53.5436092 C280.115712,53.106874 279.506493,52.5932452 278.923537,52.0640367 C277.994002,51.2187102 277.354914,50.1688369 276.839936,49.0435778 C276.816762,48.992818 276.761659,48.9551251 276.715311,48.9053705 C276.455247,49.0385521 276.234321,49.1868109 276.057169,49.4285481 C275.875896,49.6763162 275.620467,49.8758374 275.385637,50.0833997 C275.161107,50.2814131 274.919582,50.461334 274.686812,50.6508037 C273.537895,51.5840802 272.23294,52.2665733 270.908416,52.9229325 C270.496949,53.1264743 270.091661,53.3425803 269.681223,53.5456195 C269.230617,53.7692641 268.773832,53.9014406 268.296447,54.0104987 C267.338072,54.2281125 266.389483,54.492968 265.421838,54.6537912 C264.699324,54.7739059 263.95415,54.7990345 263.219277,54.7985319 C261.670222,54.7975268 260.251972,54.2889237 259.031989,53.4104276 C257.873288,52.5756551 256.788229,51.6147371 256.058504,50.3693632 C255.366889,49.1898263 254.686602,48.0002379 254.322513,46.6689242 C253.983657,45.4305863 253.632957,44.1947613 253.250328,42.9684852 C253.114374,42.5327551 252.878514,42.1251691 252.671493,41.7125573 C252.505155,41.3818648 252.177629,41.2813503 251.841348,41.3069815 C251.497342,41.3331153 251.156427,41.425086 250.819116,41.5105233 C250.503949,41.5904322 250.188783,41.6808952 249.88855,41.8025177 C249.712428,41.873883 249.567204,42.0156083 249.408076,42.1256716 C249.077975,42.3533368 248.739119,42.5699454 248.419317,42.8111801 C247.41408,43.5670487 246.412447,44.3274404 245.418024,45.0978836 C245.260441,45.219506 245.160535,45.4089757 245.014796,45.5471831 C243.874635,46.6302262 242.729838,47.7087461 241.587101,48.7882711 C240.820814,49.5129802 240.065856,50.2492485 239.286179,50.959383 C238.512681,51.6629841 237.602715,52.1539971 236.637646,52.5741474 C236.218453,52.7565811 235.844064,52.7676377 235.47431,52.5877169 C234.945942,52.3298973 234.448988,52.0424261 234.098803,51.5222638 C233.46126,50.5749153 232.940617,49.577812 232.665104,48.484215 C232.460142,47.6705506 232.311829,46.8282396 232.272175,45.9929646 C232.219133,44.8727312 232.305649,43.7474721 232.313889,42.6242232 C232.322128,41.3818648 232.312344,40.1395063 232.303589,38.8976505 C232.303074,38.7604483 232.27475,38.6202306 232.236127,38.4875516 C232.127466,38.1151456 231.946194,38.003072 231.550691,38.0804681 C231.007389,38.1865108 230.562963,38.4503612 230.231832,38.8951376 C229.956833,39.2625179 229.613343,39.5896924 229.394477,39.9847141 C229.21166,40.3154066 228.863535,40.5958419 228.928937,41.0360951 C228.486055,41.8005074 228.13381,42.636285 227.577119,43.3122446 C226.862329,44.1806893 225.999226,44.9370605 225.169596,45.7115242 C224.624234,46.2206298 224.061878,46.7282277 223.441844,47.1423472 C222.512308,47.7625213 221.564748,48.3801825 220.551786,48.8500875 C219.62225,49.2812945 218.609288,49.4808156 217.568517,49.0264904 C216.974747,48.7666605 216.55195,48.3389716 216.183226,47.8655486 C215.517359,47.0116784 215.188803,46.0376935 215.24648,44.9435939 C215.301583,43.8942232 215.48131,42.8729965 215.802142,41.8698624 C216.343384,40.178707 217.026245,38.5478602 218.019638,37.0612517 C218.647912,36.1209391 219.293179,35.1705751 220.237649,34.5016515 C221.05286,33.9231909 221.948922,33.4276548 223.004627,33.4844454 C224.269414,33.5522927 225.329239,34.2594117 225.776755,35.4243741 C226.275769,36.7220155 226.00489,37.9492967 225.443049,39.1419005 C225.049606,39.9771755 224.598485,40.7868193 224.162298,41.602494 C223.972786,41.9573099 223.752891,42.295541 223.551019,42.6443261 C223.357902,42.9775315 223.004112,43.0338196 222.675041,43.1056874 C222.452571,43.1539343 221.903604,42.6594033 221.838202,42.3553471 C221.789794,42.1296922 221.730056,41.909063 221.86704,41.6597872 C222.255334,40.9541759 222.59419,40.2234359 222.964974,39.5092808 C223.444934,38.5875634 223.744136,37.6181017 223.793574,36.5833055 C223.832197,35.7771797 223.371292,35.4696056 222.617879,35.8078366 C221.997845,36.0857591 221.445788,36.4586676 221.026081,37.0024507 C220.842234,37.2396648 220.598649,37.4316474 220.402957,37.6608203 C219.458487,38.768992 218.834334,40.0394945 218.371368,41.4034754 C218.048477,42.3568548 217.74361,43.308224 217.593751,44.3043221 C217.480971,45.0546623 217.545858,45.7843972 217.84815,46.4814648 C218.10049,47.0629408 218.377033,47.203661 218.963593,46.9372978 C219.761294,46.5749432 220.565175,46.1924858 221.27945,45.6984573 C222.297562,44.9948563 223.276536,44.2254182 224.200407,43.4062256 C225.554284,42.2055806 226.509054,40.7049 227.321175,39.1172745 C227.825338,38.132233 228.534463,37.3190712 229.407866,36.6245164 C229.979492,36.1706938 230.590256,35.8038161 231.33028,35.7646154 C233.017864,35.6751576 233.969544,36.3918255 234.355777,37.8638595 C234.786814,39.5062654 234.735831,41.160733 234.665794,42.8252521 C234.623051,43.8469814 234.535505,44.8762492 234.614296,45.8909425 C234.721927,47.2654774 234.919678,48.6435303 235.60048,49.8919197 C235.843549,50.3361935 236.015552,50.4749034 236.501177,50.1507443 C237.459551,49.5124777 238.314415,48.76264 239.122416,47.9645553 C240.928959,46.180424 242.81481,44.4807249 244.706839,42.7840412 C245.593117,41.9899771 246.547372,41.2989404 247.549004,40.6817817 C248.499654,40.0962851 249.547635,39.6565345 250.566777,39.1826089 C250.797487,39.0750584 251.08948,39.0514375 251.351603,39.0559607 C253.168962,39.0871202 254.365771,39.7454897 254.98632,41.4667995 C255.197461,42.0512909 255.33805,42.6599059 255.509538,43.2574642 C255.792261,44.2430083 256.029151,45.2446346 256.368006,46.2115835 C256.857236,47.6112471 257.377364,48.9988489 258.442854,50.124108 C258.987701,50.6990506 259.508858,51.2744958 260.1773,51.7283184 C261.576496,52.679185 263.105981,52.9405226 264.758032,52.6877287 C266.289577,52.4530275 267.743875,51.9700557 269.15646,51.3589279 C271.670069,50.2713617 273.806199,48.6761975 275.683294,46.733756 C275.864567,46.5467992 276.048929,46.3583346 275.988162,46.0497553 C275.794015,45.0687344 275.875896,44.0972623 276.112271,43.130816 C276.452157,41.7447219 277.045412,40.4777374 277.992457,39.3886635 C278.308138,39.0258064 278.690767,38.7127039 279.068246,38.4066374 C279.488984,38.0643858 279.995722,37.9015524 280.537479,37.8402386 C280.996325,37.7884736 282.231758,38.3186873 282.355867,38.6805393 C282.53714,39.2117581 282.64992,39.7681055 282.449078,40.325458 C282.286345,40.7772704 282.086534,41.1954105 281.749738,41.5768628 C281.380499,41.9945003 281.147213,42.5252165 280.847496,43.0031627 C280.613181,43.3770764 280.356722,43.7379232 280.132191,44.1173652 C280.024561,44.3008041 279.967398,44.512387 279.890667,44.7124107 C279.870582,44.7656833 279.880367,44.8616746 279.848438,44.8747415 C279.310801,45.100899 279.501858,45.7276065 279.062582,46.0944842" id="Fill-6" fill="#070707"></path>
                    <path d="M203.041489,7.27295625 C203.149576,7.10666572 203.190558,7.04353691 203.321185,6.84285914 C203.015876,6.93729574 202.759231,6.93832222 202.680343,7.05739445 C202.516418,7.30323755 202.339687,7.23497631 202.151686,7.17851965 C201.728556,7.05174879 201.320794,7.04251042 200.916105,7.24883386 C200.834143,7.29040649 200.721957,7.28373434 200.624115,7.28065488 C199.785539,7.25447952 198.960794,7.36226042 198.138098,7.51623313 C197.861987,7.56755737 197.566411,7.50391531 197.281592,7.52239204 C197.04339,7.53830255 196.767279,7.51623313 196.71093,7.8077548 C196.556227,7.75899677 196.347223,7.66250721 196.327757,7.69176202 C196.086993,8.05719059 195.703819,7.91142975 195.384679,7.98328369 C195.085517,7.6188816 194.727956,7.86677767 194.390887,7.88730736 C194.006176,7.91091651 193.61788,7.90373112 193.236244,7.95248914 C192.247062,8.07772028 191.258904,8.21578248 190.273821,8.37026843 C189.837884,8.43904291 189.403997,8.46983745 188.965499,8.49960551 C187.940458,8.56837999 186.901587,8.68385952 185.91343,9.02721866 C185.858617,9.04620863 185.774094,9.08110911 185.744383,9.05698672 C185.364795,8.75160751 185.042069,9.03543054 184.69168,9.13089362 C184.405837,9.20890646 184.093868,9.18478407 183.804951,9.25509827 C182.864434,9.48605734 181.938261,9.78219819 180.99006,9.97107138 C180.128432,10.1424943 179.343644,10.46789 178.63006,10.9513643 C178.196172,11.2449389 177.807876,11.6154999 177.435973,11.9881139 C177.289977,12.1333615 177.240288,12.3771516 177.153715,12.5788559 C177.080974,12.7477126 177.036919,12.9309401 176.94881,13.089532 C176.388905,14.1006195 176.234201,15.1881801 176.2634,16.3291178 C176.282866,17.0989814 176.230615,17.8714112 176.190147,18.6417879 C176.181438,18.804999 176.083596,18.9635909 176.031857,19.1108915 C176.083596,19.1719673 176.217809,19.2576788 176.220882,19.346983 C176.235738,19.8494472 176.199367,20.3539645 176.218833,20.8564288 C176.235226,21.2926848 176.289014,21.7289408 176.349973,22.1621174 C176.630181,24.1678685 176.957006,26.1648946 177.484638,28.1249672 C177.984095,29.9803383 178.452304,31.8439214 178.952786,33.7742259 C178.782202,33.9723375 178.561417,34.2284454 178.276598,34.56 C177.978973,34.1719888 177.647025,33.8388945 177.501542,33.4057179 C176.967763,31.8203122 176.430398,30.2338801 175.970385,28.6258917 C175.667125,27.5665595 175.513958,26.4656546 175.260387,25.3909251 C174.789105,23.3933858 174.518117,21.3696711 174.320383,19.3274798 C174.152873,17.6029854 174.151848,15.8856764 174.370073,14.1791456 C174.578564,12.5501143 175.119515,11.0129534 176.366365,9.86585669 C177.13681,9.15706898 178.07579,8.68180655 179.084438,8.36975519 C179.180744,8.33998713 179.288832,8.34050037 179.380015,8.30098071 C180.40403,7.85856579 181.497714,7.70407984 182.581665,7.5013491 C184.127165,7.21136716 185.691107,7.04558988 187.242755,6.81309109 C188.587448,6.61087359 189.948021,6.5564699 191.28042,6.30190169 C192.389471,6.08993259 193.514915,6.16281301 194.625504,6.02372432 C195.069124,5.96829415 195.518892,5.93698636 195.953804,5.83895707 C197.133036,5.57258428 198.330197,5.42169103 199.530431,5.44837963 C200.052428,5.45967096 200.515003,5.33751928 201.004727,5.25232104 C201.587684,5.1512123 202.181398,5.10809994 202.771526,5.0567757 C203.370875,5.00493822 203.972272,4.98081583 204.571621,4.93257105 C205.672989,4.8448066 206.774869,4.76730701 207.873163,4.64926126 C208.854661,4.54404658 209.848453,4.532242 210.817144,4.40598438 C211.948735,4.25868382 213.091596,4.26894867 214.218065,4.06929739 C214.809217,3.96459594 215.430594,4.0415823 216.035577,4.00206264 C216.484321,3.97280782 216.929478,3.88350365 217.377197,3.83012644 C217.863335,3.7726433 218.349986,3.69206424 218.837149,3.68128615 C219.939029,3.65716376 221.041934,3.68590534 222.143301,3.65767701 C222.588971,3.64638567 223.032079,3.5401445 223.477749,3.48420109 C223.72005,3.45391979 223.964912,3.41953255 224.20875,3.4190193 C224.90799,3.41747958 225.604157,3.38565855 226.301348,3.34716537 C227.001613,3.30815895 227.705464,3.3487051 228.407778,3.3317681 C229.321657,3.31021192 230.235536,3.23373881 231.148902,3.24041096 C232.183163,3.24708311 233.2164,3.32560919 234.250661,3.35948319 C234.595414,3.37026128 234.941705,3.31585759 235.285434,3.33125486 C235.753131,3.35281104 236.219291,3.41388688 236.685964,3.45597276 C236.824275,3.46777733 236.964123,3.47547597 237.102947,3.47701569 C237.224353,3.47906866 237.36164,3.43185036 237.466142,3.47188327 C238.348773,3.81216296 239.290314,3.6176441 240.191386,3.79060678 C241.620091,4.06416496 243.02728,4.39931223 244.314087,5.1075867 C244.837621,5.39551566 245.310953,5.74554696 245.48,6.42046067 C245.342201,6.4728114 245.21977,6.52002969 245.090167,6.56930096 C245.167007,6.68785995 245.250506,6.81771027 245.335029,6.94756059 C245.315563,6.97989486 245.296609,7.01274237 245.277656,7.04507664 C244.856575,6.87724638 244.435494,6.70992937 244.014413,6.5431256 C243.820265,6.54979775 243.592819,6.60420144 243.392012,6.55390369 C243.068261,6.47178491 242.769099,6.29368981 242.446373,6.20489888 C241.779405,6.02167135 241.104241,5.8707781 240.432151,5.70705378 C240.372728,5.69216975 240.312281,5.67523276 240.251834,5.67317979 C238.541896,5.61672313 236.852962,5.31493661 235.147123,5.23589729 C234.602074,5.21023517 234.071881,5.27695668 233.516074,5.13530178 C233.065282,5.02033549 232.551993,5.15839769 232.066367,5.17533469 C231.315388,5.20099681 230.553139,5.14710636 229.81804,5.2651521 C229.338561,5.34213846 228.913894,5.24256944 228.466176,5.18919223 C228.385238,5.17944063 228.302763,5.16660957 228.221826,5.16968902 C226.183015,5.24359592 224.14318,5.31904255 222.104369,5.39448918 C222.063388,5.39602891 222.010113,5.38011839 221.983475,5.40013485 C221.508094,5.75016614 220.977388,5.45864448 220.480492,5.53614407 C220.247924,5.57258428 220.020479,5.64084552 219.788936,5.68755057 C219.717731,5.70192136 219.600423,5.72553051 219.574809,5.69114327 C219.370928,5.4201513 219.092257,5.54692216 218.902207,5.62544825 C218.51596,5.78557986 218.160449,5.72399078 217.769079,5.69011678 C217.332118,5.65162361 216.883374,5.77685474 216.437705,5.81432144 C215.467477,5.89490049 214.494687,5.95956903 213.524459,6.04374078 C213.265254,6.06632344 213.011683,6.14074358 212.753502,6.18180297 C212.618264,6.20387239 212.473294,6.23620666 212.343691,6.20900482 C212.072191,6.15254816 211.864212,6.20284591 211.603469,6.33577568 C211.367316,6.45638764 211.016927,6.35065971 210.71674,6.34655377 C210.450363,6.34296108 210.159909,6.14023034 209.927854,6.44458307 C209.910437,6.46767897 209.854088,6.46613925 209.815156,6.46767897 C209.267545,6.48718218 208.720448,6.50257945 208.17335,6.52567536 C207.996106,6.533374 207.742536,6.40301043 207.722557,6.74380337 C207.52636,6.70838964 207.274326,7.06252688 207.123721,6.65347271 C207.105791,6.6036882 206.973627,6.55903611 206.903959,6.57084069 C206.388622,6.65809189 205.8656,6.72532664 205.369216,6.87878611 C205.218099,6.92600441 205.119232,6.98913322 204.945574,6.94396789 C204.451752,6.8156573 203.95588,6.72224719 203.539922,7.1754402 C203.464619,7.25704573 203.274569,7.23189686 203.041489,7.27295625" id="Fill-8" fill="#070707"></path>
                    <path d="M187.16,53.8098468 C187.288991,53.8523188 187.379985,53.8538539 187.426982,53.9019547 C188.125435,54.609651 188.812889,55.33014 189.514342,56.034766 C189.794824,56.3156953 190.107303,56.5628517 190.399283,56.8304765 C191.303723,57.6589365 192.146166,58.5682469 193.236593,59.1562027 C193.553072,59.3266025 193.87855,59.4908617 194.216028,59.6080435 C195.036973,59.8935782 195.775923,59.6986163 196.455378,59.1654135 C197.009841,58.7294358 197.344318,58.1312457 197.688795,57.5315205 C198.247258,56.558758 198.65623,55.5133325 199.001707,54.4546026 C199.631665,52.5198235 200.187128,50.5599706 200.74959,48.6031879 C201.312053,46.6458935 201.859016,44.683482 202.383981,42.71493 C202.661962,41.6720631 202.881447,40.6133332 203.120431,39.560232 C203.381914,38.4063239 203.651396,37.2544625 203.88738,36.0959489 C204.061868,35.2378097 204.18086,34.3684128 204.33635,33.5066916 C204.452842,32.865006 204.602832,32.229461 204.711825,31.5867521 C204.979307,30.0188697 205.23279,28.4484288 205.489773,26.8790114 C205.775754,25.1325419 206.047736,23.3835139 206.347715,21.6390913 C206.565201,20.3772121 206.830683,19.124032 207.049668,17.8621528 C207.216657,16.8996245 207.352648,15.9314674 207.487139,14.9633103 C207.545635,14.5447307 207.700625,14.2428213 208.125096,14.0969836 C208.313584,14.0319964 208.450075,14.004364 208.623563,14.1143818 C208.774553,14.2100718 208.950541,14.26636 209.11553,14.3390229 C209.630996,14.5646874 209.945475,15.1905099 209.807484,15.7359938 C209.484505,17.0101541 209.107531,18.2735684 208.849548,19.5615448 C208.696558,20.3219473 208.441075,21.0675102 208.482073,21.8816423 C208.498071,22.1978796 208.456074,22.6128772 208.320083,22.9224623 C207.991105,23.6757008 208.22559,24.5292347 207.842615,25.2732624 C207.700125,25.5506098 207.739622,25.9251822 207.690126,26.254724 C207.642629,26.5684028 207.587632,26.8805465 207.534636,27.1932019 C207.490639,27.4521276 207.459141,27.7146353 207.396645,27.9689557 C207.347149,28.1674995 207.297152,28.3297119 207.402645,28.5482125 C207.47114,28.688933 207.393145,28.9355777 207.32165,29.1090477 C207.191159,29.4278436 207.136663,29.740499 207.098665,30.0879507 C207.059668,30.4420547 207.049168,30.8232793 206.919177,31.1922229 C206.73169,31.7203086 206.698192,32.305706 206.605698,32.8680763 C206.466207,33.7134228 206.342716,34.5618395 206.192226,35.4046275 C206.111231,35.8590268 205.966741,36.301145 205.890246,36.7555444 C205.841249,37.0431259 205.867748,37.3440119 205.853249,37.6382457 C205.849249,37.7165375 205.83575,37.8030167 205.797752,37.8680039 C205.479274,38.4093941 205.390779,38.9866041 205.441776,39.617032 C205.465774,39.9092189 205.341783,40.2177806 205.267788,40.514573 C205.0798,41.2611592 204.873814,42.0026284 204.691826,42.7507498 C204.580334,43.2118014 204.388347,43.6488025 204.354849,44.1354396 C204.33785,44.3682681 204.225358,44.6118425 204.100366,44.8149918 C203.765388,45.3604756 203.603399,45.9453612 203.623398,46.5865351 C203.624898,46.6269602 203.641397,46.6837601 203.621898,46.705252 C203.200926,47.170909 203.480407,47.7982666 203.257422,48.3227703 C203.045936,48.8222002 202.960942,49.3763831 202.803453,49.9008869 C202.424978,51.162766 202.037004,52.4210633 201.65253,53.6808956 C201.546037,54.0309059 201.454543,54.3860333 201.324552,54.7258094 C201.275055,54.8557839 201.091567,54.9361226 201.05257,55.0655854 C201.011573,55.2022123 201.124065,55.3915453 201.075568,55.5215199 C200.778588,56.3172304 200.492607,57.1226634 200.120132,57.8820425 C199.988641,58.150179 199.801654,58.3973354 199.679162,58.6879872 C199.231192,59.7549046 198.50774,60.5582907 197.435312,60.9988739 C197.158331,61.1124737 196.890349,61.2501239 196.608367,61.3483724 C195.809421,61.6272549 195.003475,61.6298135 194.200529,61.3601418 C192.84212,60.9026722 191.767192,60.0445329 190.791757,58.9863147 C189.84332,57.957264 189.035374,56.8279179 188.225429,55.6934548 C187.980945,55.3506084 187.690964,55.0384648 187.470979,54.6807788 C187.330489,54.4515323 187.281492,54.163439 187.16,53.8098468" id="Fill-10" fill="#070707"></path>
                    <path d="M104.850856,47.52 C104.175737,47.1348534 104.089456,46.5224152 104.031934,45.9354538 C103.937579,44.9788314 104.057163,44.0321999 104.326605,43.1055501 C104.386649,42.8997389 104.428528,42.6889323 104.395731,42.4511505 L104.091474,43.0421083 C104.075328,42.2743127 104.358393,41.5904402 104.718658,40.9605181 C105.009291,40.4534833 105.279742,39.9324613 105.64253,39.4509031 C106.070912,38.880926 106.499294,38.2999591 106.938273,37.7359765 C107.388856,37.1565081 107.92673,36.6439784 108.424744,36.1009765 C109.110962,35.3531626 110.032312,34.9889967 110.949121,34.6453121 C111.267506,34.5254221 111.6641,34.5553946 112.016796,34.5943588 C112.468389,34.644313 112.601091,34.8051654 112.625311,35.2592488 C112.712602,36.8992442 112.413895,38.4603119 111.647449,39.9314622 C110.849215,41.4615584 109.819887,42.8328003 108.658361,44.0976399 C107.904529,44.919386 107.037169,45.6402246 106.206642,46.3910358 C105.77826,46.7781806 105.319604,47.1318561 104.850856,47.52" id="Fill-12" fill="#FEFEFE"></path>
                    <path d="M103.23968,45.3413793 C103.28288,44.9875862 103.32608,44.6337931 103.3682,44.28 C103.47188,44.2897537 103.57664,44.3012808 103.68032,44.3119212 C103.60472,44.6612808 103.52912,45.0115271 103.45352,45.36 C103.38224,45.3546798 103.31096,45.3475862 103.23968,45.3413793" id="Fill-14" fill="#FEFEFE"></path>
                </g>
            </g>
        </g>
    </g>
</svg>