<?xml version="1.0" encoding="UTF-8"?>
<svg width="239px" height="56px" viewBox="0 0 239 56" version="1.1" xmlns="http://www.w3.org/2000/svg" xmlns:xlink="http://www.w3.org/1999/xlink">
    <!-- Generator: Sketch 59.1 (86144) - https://sketch.com -->
    <title>Dylan Signature</title>
    <desc>Created with Sketch.</desc>
    <g id="GQ-Editor's-Club-Home" stroke="none" stroke-width="1" fill="none" fill-rule="evenodd">
        <g id="GQ-Editors-Home" transform="translate(-202.000000, -1757.000000)">
            <g id="Copy-and-Signature" transform="translate(200.000000, 1041.000000)">
                <g id="Dylan-Signature" transform="translate(2.000000, 716.000000)">
                    <path d="M78.6929027,33.2038379 C78.718254,33.2065376 78.7436053,33.209623 78.7689567,33.211937 C78.7958444,33.0603668 78.8227322,32.9080252 78.84962,32.7560693 C78.8127453,32.7514412 78.7754866,32.7464275 78.7386119,32.742185 C78.7236316,32.8960693 78.7082671,33.0499536 78.6929027,33.2038379 M79.5114432,35.6324325 C79.8682823,35.3327632 80.2174392,35.0597054 80.5435494,34.7608073 C81.1757961,34.181138 81.8360829,33.6246092 82.4099447,32.990174 C83.2941682,32.0136452 84.0777546,30.9549677 84.6854182,29.7732599 C85.2688828,28.637833 85.4958924,27.4325991 85.4298253,26.1664284 C85.411388,25.81585 85.3103668,25.691277 84.9665875,25.6530952 C84.6980939,25.6230125 84.3961827,25.5998721 84.1538086,25.6920483 C83.455879,25.9577783 82.7544923,26.2385496 82.2321013,26.8162906 C81.8529838,27.2351335 81.4435215,27.6312216 81.1005104,28.0786045 C80.7659497,28.5140314 80.4402236,28.9625713 80.1141134,29.4026263 C79.8375534,29.7740312 79.6320541,30.1762901 79.4108061,30.5681358 C79.1365509,31.0544718 78.9210646,31.5824607 78.9329721,32.175243 L79.1649751,31.7186039 C79.1899423,31.9025708 79.1580611,32.0653256 79.1123519,32.2242237 C78.9072366,32.9392649 78.8162023,33.6705045 78.8880311,34.4090718 C78.9318197,34.8622398 78.9971186,35.3346915 79.5114432,35.6324325 M39.3925869,30.2669237 C39.5911722,29.732764 40.0828343,29.4180533 40.1469808,28.8453261 C40.1634976,28.6991553 40.2625983,28.5633978 40.3175261,28.4206981 C40.3858979,28.2432876 40.5191844,28.0967312 40.431223,27.8606982 C40.3951165,27.7642794 40.5602843,27.4781087 40.6436364,27.4738663 C40.87756,27.4615247 40.9006066,27.2914421 40.9835746,27.1614696 C41.2390084,26.7611391 41.4932899,26.3600372 41.7410415,25.9546929 C41.968051,25.5840594 42.1585701,25.1875856 42.4147721,24.8393212 C42.6824975,24.4744728 42.9675078,24.0810844 43.0397207,23.6684123 C43.1726231,22.9055474 43.7495578,22.4585502 44.09641,21.8541977 C44.4593949,21.7481371 44.5588797,21.3844457 44.7866575,21.1460986 C44.8596386,21.069735 45.0228857,21.0219113 44.8289097,20.9035091 C44.8692413,20.8394871 44.9003543,20.7299554 44.9522093,20.7187709 C45.3436184,20.6358508 45.4384938,20.2829582 45.6562848,20.0284128 C45.8583271,19.7927655 45.9670306,19.4830686 46.2554979,19.2967876 C46.4210497,19.1899557 46.5013289,18.9203689 46.5762306,18.7086334 C46.6964573,18.3676968 46.8335849,18.1023525 47.2276828,17.9673663 C47.4554606,17.8890743 47.6175555,17.5955757 47.7911736,17.3842259 C47.9348311,17.2099009 48.048528,17.0112783 48.1829668,16.8288541 C48.2363583,16.7567329 48.3454458,16.7108376 48.3696448,16.6340883 C48.467209,16.3209203 48.7606698,16.1951903 48.9565664,15.977284 C49.0775613,15.8426834 49.200861,15.7103969 49.3195513,15.5734824 C49.3691016,15.5160168 49.3956052,15.4253832 49.4555266,15.3914438 C49.7743387,15.210948 49.9491092,14.9139783 50.1311778,14.6139233 C50.1983972,14.5036203 50.246027,14.4253283 50.2590867,14.2807002 C50.2709942,14.1487994 50.4876328,13.9517195 50.6312903,13.9355212 C50.8682868,13.9085239 51.0426732,13.7731521 51.1064356,13.6227389 C51.2927294,13.1849979 51.7824709,13.0847224 52.0183151,12.7140888 C52.1043559,12.5791026 52.2349537,12.471885 52.3478823,12.3546399 C52.5495406,12.1448327 52.7389073,11.92037 52.9597711,11.732932 C53.2774309,11.4629596 53.5420834,11.1602048 53.7107081,10.7760726 C53.77255,10.6349156 53.8574385,10.5732076 54.0291361,10.5168991 C54.3421866,10.4143096 54.6248922,10.1852187 54.7324433,9.84119671 C54.7858347,9.67149977 54.9102867,9.63601768 55.018606,9.54114166 C55.3604648,9.24147228 55.786828,9.06753292 56.1137064,8.75667897 C56.4659362,8.42191318 56.8062585,8.07403444 57.1515743,7.7323265 C57.1734687,7.71034304 57.1922901,7.68180309 57.2187938,7.66907582 C57.870246,7.35205108 58.2996821,6.77315309 58.8247618,6.30610082 C58.9956912,6.15414492 59.2004223,6.04191353 59.3832592,5.9026849 C59.8142317,5.57563261 60.3085825,5.32802934 60.642375,4.87987514 C60.6865478,4.82048121 60.7549195,4.77805697 60.8159932,4.73331868 C60.9300741,4.65039859 61.0864073,4.6102884 61.0422345,4.40163829 C61.0318635,4.35304326 61.1494015,4.25353914 61.2262237,4.21497165 C61.5296714,4.06340143 61.7294091,3.70742352 62.1707526,3.80692764 C62.3078802,3.83778163 62.5072338,3.62450342 62.6677922,3.50880096 C62.950882,3.30439328 63.2128457,3.06681755 63.507843,2.88323632 C63.9453454,2.61133553 64.3978281,2.37645953 64.8165091,2.06059181 C65.2647666,1.72235494 65.833635,1.54571585 66.3506484,1.30004096 C66.4197884,1.26725859 66.5062134,1.2595451 66.5622936,1.21326411 C67.2705942,0.625881279 68.1325393,0.437286266 68.9987096,0.261032848 C69.4461989,0.170399253 69.8933041,0.0608675887 70.346555,0.0176720029 C71.2446065,-0.0679478191 72.0650676,0.154972258 72.7722159,0.742740766 C72.9227874,0.867699425 73.1071607,0.955247621 73.2454407,1.09100518 C73.6337769,1.4728233 73.7685998,1.98769926 73.9011181,2.49023362 C74.1204455,3.32059162 74.0755045,4.17061904 74.0178878,5.01601837 C73.9314629,6.27794655 73.6522142,7.50554968 73.3568328,8.7316101 C73.225851,9.27695437 72.983477,9.80494327 73.0361002,10.387698 C72.7875804,10.6850533 72.9112641,11.0772847 72.7798981,11.40318 C72.6685059,11.6804802 72.5409811,11.9516096 72.4096151,12.2497363 C72.5701735,12.3885793 72.4768346,12.5910586 72.3485415,12.7368437 C72.1215319,12.9956315 72.0850414,13.3161273 71.9805632,13.6181108 C71.8384421,14.0269261 71.7973422,14.457725 71.6022138,14.8611409 C71.3567669,15.3683033 71.2188711,15.9286889 71.0433324,16.4686337 C70.8589591,17.0375042 70.6903344,17.6110027 70.5067293,18.1794875 C70.2993094,18.8208648 70.0719157,19.4553 69.8764032,20.0997627 C69.8160977,20.2987709 69.806495,20.5220767 69.8180183,20.7322695 C69.8318463,20.9933714 69.5337762,21.1750242 69.657844,21.4530958 C69.4654044,21.9290186 69.4508082,22.4728202 69.0897439,22.887035 C69.0079282,22.980754 68.8346942,23.1280818 69.0739953,23.2881369 C69.11087,23.3124344 69.1070289,23.593977 68.9011454,23.6418007 C68.6902684,23.6903958 68.7106263,23.8006988 68.8031971,23.9499549 C68.9541527,24.1944728 68.8796352,24.4073653 68.6026911,24.5288529 C68.3768339,24.628357 68.4417486,24.8489631 68.4160132,25.0410292 C68.4732457,24.9284121 68.5300942,24.8154094 68.5873267,24.7027923 C68.612678,24.7089631 68.6380293,24.7147482 68.6633807,24.7205333 C68.654162,24.8316077 68.6649171,24.9484672 68.6330359,25.0522137 C68.4171655,25.7537563 68.1751756,26.4471998 67.975822,27.1533704 C67.8394626,27.6362354 67.7557264,28.134913 67.6527847,28.6274198 C67.5333261,29.197833 67.3935097,29.765932 67.3074689,30.3417446 C67.2099047,30.9923781 67.1822487,31.6530392 67.0862209,32.3040584 C66.989425,32.9608627 67.0681677,33.615353 67.0581808,34.2710002 C67.0435846,35.2448293 67.1545927,36.2090165 67.4541993,37.1377216 C67.8125748,38.2503936 68.512425,39.0888508 69.5349285,39.6646634 C70.4663976,40.1887955 71.4128471,40.0935338 72.3842638,39.8177763 C74.0570672,39.3437819 75.5282123,38.4721566 76.9555687,37.5114405 C77.347746,37.2472532 77.738771,36.9826803 78.1032923,36.736234 C77.8532361,36.2637823 77.610862,35.8426254 77.4038262,35.4044987 C77.1353326,34.8363996 77.0692655,34.2235622 77.0900075,33.6018543 C77.1334121,32.3071438 77.4768073,31.0999814 78.0184038,29.919045 C78.8761236,28.0500645 80.0630266,26.457613 81.649405,25.1617454 C82.3842093,24.5616353 83.1797032,24.0552442 84.1468946,23.9727098 C84.7050079,23.9252718 85.2830949,23.9711671 85.809327,24.1991009 C86.5041838,24.5006987 86.802638,25.128963 86.9908524,25.8104505 C87.1302847,26.3156846 87.1710004,26.8274752 87.0503896,27.3566211 C86.9854748,27.6424062 87.0392504,27.9559599 87.0392504,28.2783841 C87.7291137,28.4905052 87.8431947,29.0393206 87.8259097,29.653315 C87.8182275,29.9302295 87.7755911,30.2056014 87.761379,30.4821303 C87.7314184,31.0799263 87.6803316,31.6788794 87.6930073,32.2762898 C87.706067,32.9195955 87.7552333,33.5652152 87.837433,34.2035071 C87.9784017,35.2930387 88.6210194,36.0474187 89.5317466,36.5958484 C89.9074071,36.8222395 90.3391479,36.8172258 90.7405439,36.7566748 C91.1742052,36.6914957 91.6147805,36.5653801 92.011183,36.3779421 C93.6248333,35.6170056 95.0168515,34.5432867 96.2394768,33.2451051 C97.1041106,32.3275846 97.8996045,31.3591549 98.4930559,30.2329843 C99.0300431,29.2140313 99.6004479,28.2128193 100.150879,27.2008085 C100.231158,27.053095 100.283781,26.8903402 100.344855,26.7329848 C100.518473,26.286759 100.788503,26.1216902 101.267874,26.1706709 C101.905498,26.2362356 102.152865,26.4471998 102.266178,27.0565661 C102.28692,27.1680261 102.245436,27.2999269 102.205105,27.4129296 C102.051076,27.8452712 101.906266,28.2826265 101.720356,28.7014694 C101.360829,29.5106153 101.22178,30.3783837 101.026268,31.2295682 C100.84804,32.0059317 100.701694,32.7903944 100.572249,33.5763998 C100.503877,33.9906146 100.500804,34.4156283 100.524235,34.852598 C100.810782,34.3689617 101.09464,33.8837827 101.384259,33.4016891 C101.825603,32.6658214 102.283463,31.9399813 102.710595,31.1956288 C103.082798,30.5480807 103.584063,30.0077502 104.083023,29.4678054 C104.843563,28.6451609 105.608712,27.8240591 106.415729,27.0480812 C106.955789,26.5289628 107.568446,26.0804229 108.256005,25.7641696 C108.774555,25.5254368 109.308469,25.6145277 109.819337,25.80158 C109.938795,25.8451613 110.041737,26.0063734 110.099354,26.1371172 C110.338271,26.679376 110.429305,27.2497892 110.35594,27.8421858 C110.28027,28.4511664 110.192693,29.05899 110.12701,29.6695133 C110.047114,30.4157942 110.023684,31.1640035 110.163116,31.908356 C110.202679,32.1189344 110.234177,32.3310556 110.280654,32.5400914 C110.590247,33.9343061 111.335423,35.0539202 112.450113,35.921303 C113.731891,36.9186583 115.173076,37.5145259 116.814766,37.5295673 C117.361356,37.534581 117.909866,37.4971706 118.455304,37.4516609 C119.094081,37.3980521 119.729016,37.3024047 120.368177,37.25111 C120.57406,37.2349116 120.787242,37.3012477 121.03,37.3340301 C120.928211,37.6040025 120.775334,37.737446 120.560232,37.8462063 C120.284825,37.9858206 120.055126,38.2395947 119.769348,38.3294569 C119.291898,38.4806415 118.789481,38.5651043 118.291673,38.6325974 C117.718579,38.710118 117.138956,38.7394293 116.562405,38.7876387 C116.409913,38.800366 116.256269,38.8184927 116.104161,38.8130932 C115.180374,38.7806965 114.300375,38.5732035 113.447265,38.2041126 C112.500047,37.7945259 111.5874,37.3402009 110.783071,36.6783828 C110.22611,36.2202011 109.813959,35.6501736 109.467107,35.0342508 C108.739601,33.74224 108.331675,32.3538104 108.302482,30.860863 C108.285197,29.9514417 108.339741,29.0478054 108.473028,28.1480259 C108.494154,28.0053262 108.476101,27.8560701 108.476101,27.6771169 C107.710567,28.1352987 107.084851,28.6659873 106.534804,29.2849955 C106.219448,29.6398164 105.927908,30.0158494 105.620619,30.3783837 C105.312947,30.7401468 104.992598,31.0911109 104.691071,31.4578877 C104.517837,31.6676948 104.370338,31.8987141 104.193263,32.1459317 C104.1537,32.0718821 104.128348,32.0244441 104.076493,31.9280254 C103.941286,32.1910556 103.818371,32.4259316 103.699296,32.662736 C103.610183,32.8397608 103.527215,33.0194853 103.440405,33.1976671 C103.341305,33.3997607 103.187276,33.5941408 103.160389,33.8047193 C103.143104,33.9424052 102.807006,33.8201463 102.995989,34.070835 C103.043235,34.1333143 102.894968,34.3381077 102.846186,34.481193 C102.614567,35.1568954 102.23737,35.7546915 101.860941,36.3544159 C101.648912,36.6918814 101.456472,37.0436169 101.278629,37.4007518 C101.112309,37.7347463 100.840742,37.9588234 100.535758,38.1316057 C100.070984,38.3950217 99.5547387,38.238052 99.261662,37.7725424 C98.93632,37.2549667 98.7577084,36.6830109 98.7166085,36.0759587 C98.6597601,35.2301737 98.6482368,34.3836173 98.7780663,33.540532 C98.8068746,33.35078 98.7991924,33.1552428 98.8118681,32.8817993 C98.4223795,33.3357387 98.0974216,33.7283557 97.7547946,34.1055457 C97.6291903,34.2436173 97.4540357,34.3357936 97.3149875,34.463452 C96.8225573,34.9150773 96.3512531,35.3913858 95.8446107,35.8256557 C94.6757609,36.827639 93.4055059,37.659154 91.9355131,38.1632311 C91.0205608,38.4767847 90.1209728,38.3633963 89.2213849,38.1462614 C88.3317838,37.9322118 87.6711129,37.3729833 87.1122315,36.6695123 C86.3755066,35.7427356 85.979104,34.3843887 85.9445341,33.3785486 C85.6437751,33.5821849 85.4474944,33.8718267 85.356076,34.214306 C85.3291882,34.3141958 85.2777174,34.414857 85.2128026,34.4950773 C84.8916858,34.8896227 84.5701849,35.2849395 84.2325514,35.6652149 C84.0316613,35.8912204 83.8684142,36.1689063 83.539231,36.2491267 C83.4854555,36.2622396 83.4293753,36.3143057 83.3978782,36.3636721 C83.1074903,36.8187685 82.5854835,36.9471982 82.1821669,37.2418538 C81.6363452,37.6410273 81.0067873,37.7397601 80.3599444,37.7536444 C80.1041265,37.7590438 79.842931,37.7108344 79.5913383,37.6537546 C79.4392303,37.6194295 79.334368,37.6410273 79.2118366,37.7320466 C78.8315668,38.0147462 78.448224,38.2935892 78.0533579,38.5550767 C77.2874406,39.0614678 76.5368877,39.5975559 75.7352481,40.0406964 C75.056524,40.4155723 74.3224879,40.6951866 73.5988228,40.9813574 C73.1593998,41.1549111 72.6877115,41.2455447 72.2409904,41.4021287 C71.7631563,41.5695116 71.2787924,41.5702829 70.7917397,41.5105033 C70.336184,41.4549661 69.8867742,41.3446631 69.4308344,41.292597 C68.6837385,41.2069772 68.1329234,40.7665365 67.6174464,40.2871426 C66.4159473,39.1690711 65.7487465,37.7767848 65.4952332,36.1484655 C65.1986995,34.2401463 65.2824357,32.3491823 65.5628368,30.451662 C65.7906146,28.9101195 66.1643546,27.4056018 66.6022411,25.9134257 C66.8661253,25.0144176 67.0750817,24.0995968 67.3397342,23.20136 C67.5436971,22.509845 67.8071973,21.836071 68.0249882,21.1484127 C68.3123032,20.2413054 68.5742669,19.3260989 68.8600455,18.4186059 C69.1181681,17.5990468 69.3997214,16.7868155 69.6609169,15.9680278 C69.9639805,15.0165678 70.2539843,14.0608655 70.553975,13.1082486 C70.7613949,12.4502872 70.9826428,11.7965683 71.1854534,11.1370643 C71.6279493,9.69733998 72.032034,8.24720246 72.3009117,6.76312555 C72.4595496,5.88610088 72.6431546,5.0063765 72.6128099,4.11122511 C72.5943725,3.56163842 72.4845168,3.0139801 72.3957871,2.4690215 C72.3750451,2.34020609 72.2993753,2.19789206 72.2056522,2.10764414 C71.8457402,1.76169378 71.4428078,1.51409051 70.9108141,1.51100511 C70.1061015,1.50637702 69.3540122,1.7061566 68.5796445,1.91133563 C67.4349937,2.21563311 66.3913642,2.71353937 65.3834569,3.29282303 C64.2196006,3.96196894 63.0499827,4.63998537 61.9717831,5.43524695 C60.6681104,6.39634874 59.4677636,7.4974505 58.2036543,8.51408947 C57.0063804,9.47750531 55.9166575,10.5577806 54.8054244,11.6141441 C53.9964867,12.3839512 53.2198142,13.1880833 52.4266251,13.97486 C52.0805411,14.3181106 51.7106422,14.6389921 51.3860684,15.0015265 C50.8260346,15.6278625 50.3251538,16.3108927 49.7405369,16.9121598 C48.7330138,17.9484682 47.8856649,19.1139777 46.9926069,20.2413054 C46.2305307,21.2035642 45.5133955,22.2040048 44.8143135,23.2140873 C44.1451921,24.1813599 43.5283099,25.1852716 42.8799305,26.1675855 C42.7912009,26.3018003 42.8096382,26.4626267 42.7566309,26.5760152 C42.6087482,26.8930399 42.3886526,27.1768966 42.1904513,27.4692382 C42.1243842,27.5668139 42.0168331,27.6397065 41.9642099,27.7430673 C41.6089073,28.4395962 41.2635915,29.1422958 40.9140505,29.84191 C40.7173857,30.235684 40.6255831,30.6788245 40.3374999,31.0294029 C40.2729693,31.1080806 40.2368628,31.220312 40.2161208,31.3232872 C40.1819349,31.4910558 40.2069022,31.6792651 40.140451,31.8292926 C40.0686222,31.9905047 39.8692686,32.1004221 39.8147248,32.2631768 C39.6380338,32.7865377 39.4851576,33.3195403 39.3553281,33.8567854 C39.1394577,34.7519368 38.908607,35.6351323 38.5283371,36.48246 C38.3804544,36.812212 38.1799485,37.1261513 38.0843048,37.4763441 C37.9721444,37.8855452 37.8976269,38.3051594 37.8119701,38.7209169 C37.7071078,39.2315505 37.6045502,39.7425697 37.5073701,40.2543602 C37.4904693,40.3434511 37.5054496,40.4383271 37.5058337,40.5301178 C37.54847,40.5281894 37.5914904,40.526261 37.6928957,40.5220186 C37.65218,40.9655447 37.6091595,41.432597 37.565755,41.8996492 C37.2891951,42.1121561 37.3191557,42.4125968 37.4082695,42.6763984 C37.6756107,43.4701173 37.5742054,44.298547 37.6690809,45.1073072 C37.8257981,46.4401995 38.1223318,47.7360671 38.5863379,48.9933672 C38.7722476,49.4974443 38.9416406,50.0088491 39.1578951,50.4994276 C39.3180693,50.8627333 39.5108931,51.2202539 39.7440484,51.5399784 C40.220346,52.1936973 40.628656,52.9033391 41.2824129,53.4162867 C41.9161961,53.9134216 42.6064435,54.2528155 43.4199906,54.279427 C44.0291906,54.2987108 44.5969067,54.0958458 45.1461854,53.8652122 C46.2873791,53.3865897 47.2703191,52.6723198 48.1898808,51.8411905 C49.1321051,50.9896203 49.9091616,50.016177 50.6412772,48.984111 C51.3468891,47.9890698 51.9806722,46.9546898 52.5218846,45.867858 C53.1587406,44.5897315 53.7529603,43.2896215 54.142833,41.90582 C54.4178564,40.9300626 54.7574105,39.9712749 55.0051621,38.9885753 C55.2901725,37.8573909 55.5087316,36.7092368 55.7495692,35.5664821 C55.8094905,35.2818541 55.8505904,34.9922123 55.8886174,34.7029561 C56.018831,33.7133144 56.1444353,32.723287 56.2696555,31.7332596 C56.2773377,31.67348 56.2642779,31.6113863 56.2565957,31.4756288 C56.1475082,31.6025158 56.0606991,31.675794 56.0080759,31.768356 C55.2302512,33.1382731 54.24347,34.3489066 53.1856284,35.5051598 C52.5725872,36.1746914 51.9192144,36.8010274 51.1387009,37.2723221 C50.85177,37.4454901 50.5448653,37.6047739 50.2264373,37.7035066 C49.4002146,37.9592091 48.6235422,37.7922118 47.910248,37.3232312 C47.1136019,36.799099 46.6065753,36.0412479 46.2232326,35.183507 C45.6885501,33.9856008 45.4496331,32.7302291 45.4058444,31.4220199 C45.376652,30.5457666 45.3151942,29.6656566 45.1872852,28.7990451 C45.1116154,28.2849405 45.4830507,27.8132602 46.117218,28.0766761 C46.3108099,28.1565108 46.5309055,28.2066485 46.6876228,28.3343069 C46.9599575,28.55607 47.0636674,28.8696236 47.0590581,29.233315 C47.0502235,29.8800918 47.0728861,30.5276399 47.0798001,31.174031 C47.0909393,32.1497884 47.2261464,33.1120472 47.4742821,34.0500085 C47.5818332,34.4576669 47.8122997,34.8379423 48.0224085,35.2108899 C48.2421199,35.6015786 48.6185487,35.8244986 49.0268587,35.9706694 C49.1912582,36.029292 49.405208,36.0636171 49.560773,36.0080799 C49.9468045,35.8711653 50.3482005,35.7269229 50.6773836,35.4924326 C51.3276835,35.0284657 51.8857968,34.4484107 52.3786112,33.8197606 C53.0515736,32.9608627 53.741437,32.1077499 54.3256698,31.189458 C54.8181001,30.4157942 55.1826214,29.5580533 55.5813286,28.7265383 C55.8598091,28.1457119 56.1071765,27.5490729 56.3560805,26.9543622 C56.5162548,26.5713871 56.6583758,26.1799271 56.7978081,25.7880814 C56.8377556,25.6750787 56.8481266,25.5485773 56.8577294,25.4270897 C56.8830807,25.1046655 57.0885801,24.8551339 57.4012465,24.7806986 C58.0507782,24.626043 58.766761,25.2188253 58.6949323,25.8791007 C58.6300175,26.47304 58.5032609,27.0596515 58.4337368,27.6532051 C58.3511529,28.3570617 58.3069802,29.0651608 58.233615,29.7697888 C58.1982768,30.1134251 58.2478271,30.4794306 57.9927774,30.7783286 C57.9482205,30.831166 57.9539822,30.9692376 57.9893204,31.0417445 C58.136819,31.3414139 58.11262,31.6642238 58.0273474,31.9469235 C57.8783123,32.4417443 57.9378495,32.9473641 57.8621797,33.4421849 C57.7749865,34.0129838 57.6827998,34.5822399 57.5402946,35.1480249 L57.5402946,34.7604217 C57.5107181,34.758879 57.4803733,34.7573363 57.4507968,34.7557936 C57.4385052,34.9127632 57.3628354,35.105215 57.4262137,35.2197604 C57.5683348,35.4777769 57.4684659,35.6964546 57.3908755,35.9151322 C57.2330059,36.3594297 57.1980518,36.8114406 57.2111115,37.2773359 C57.2245554,37.7752421 57.0766727,38.2299528 56.7882053,38.694691 C57.0079168,39.1285753 56.7463372,39.5817433 56.6261105,40.0264264 C56.240079,41.450338 55.8471334,42.8804204 55.2133503,44.2148555 C54.904525,44.8651033 54.6268128,45.5276928 54.3425707,46.1868111 C53.9235056,47.1587118 53.4406781,48.0962874 52.859134,48.9744691 C52.1212568,50.0882982 51.3488096,51.1828435 50.4380825,52.165543 C50.1046741,52.524992 49.7366958,52.8562867 49.3564259,53.166755 C48.7637427,53.650777 48.1533903,54.1151295 47.5365081,54.5686832 C47.3164125,54.7298953 47.0648198,54.859482 46.8113065,54.9624572 C46.1302777,55.2382148 45.4507854,55.5239998 44.7513193,55.7430632 C44.2131798,55.9116031 43.6500731,55.9065893 43.0750589,55.8672505 C41.6853454,55.7712174 40.5691188,55.124055 39.6729879,54.1409697 C38.8379306,53.2253776 38.1284776,52.196397 37.7094125,50.9961768 C37.4666544,50.300805 37.1459217,49.6328161 36.9035477,48.9374443 C36.4979265,47.7750203 36.2198301,46.5786568 36.039682,45.3595385 C36.0024233,45.1069215 36.1752732,44.9190978 36.1737368,44.6610813 C36.1718162,44.3178307 36.2421085,43.9965635 36.1491537,43.6313294 C36.0462119,43.2263708 36.1057491,42.7743599 36.1272594,42.3443324 C36.1591406,41.7033407 36.2083068,41.0623491 36.2724533,40.4236715 C36.3004934,40.1452142 36.3838455,39.8725421 36.3884548,39.5447185 C36.2167572,39.7063162 36.0538942,39.8794843 35.8714414,40.0275834 C34.8570043,40.8540847 33.7749637,41.5741397 32.613412,42.1808062 C31.097326,42.9725967 29.5182457,43.6078033 27.8734824,44.0528721 C26.2025996,44.5052687 24.5205776,44.9356819 22.7786343,45.0305579 C21.6604872,45.0911088 20.5415719,45.207197 19.4245771,45.194084 C18.4028419,45.1821281 17.3814908,45.0401997 16.3620602,44.9368389 C14.5348442,44.7505579 12.769086,44.2850483 11.0540304,43.6455994 C10.1371575,43.3038915 9.23564902,42.8989328 8.37485629,42.4345803 C6.73470237,41.5494565 5.23436485,40.4568395 3.9114866,39.1316607 C2.97271935,38.191771 2.18644415,37.1238373 1.48659393,36.0042231 C1.13398004,35.4392094 0.953063767,34.7642784 0.707232734,34.1340857 C0.61235732,33.8907248 0.557813559,33.631937 0.475229697,33.383948 C0.346936626,32.9971161 0.301995641,32.615298 0.374976729,32.2026259 C0.443732596,31.8150226 0.368830953,31.4131494 0.46101759,31.0155186 C0.536687455,30.6880807 0.625801204,30.3737556 0.73296817,30.0540312 C0.889685454,29.5858219 1.10670816,29.1561801 1.30875054,28.7134253 C1.66136443,27.9405329 2.13881439,27.2478608 2.73149765,26.6554642 C3.29882958,26.0885221 3.93837437,25.5937013 4.55525662,25.0772826 C4.85947252,24.8231229 5.19211264,24.6032882 5.49594443,24.3483571 C5.82013411,24.0760706 6.21115909,23.9592111 6.59795886,23.8296244 C6.62561485,23.8203682 6.68745672,23.9129302 6.7427687,23.9673103 C6.98706329,23.8789908 7.25248398,23.7829577 7.54440834,23.6772828 C7.60740254,23.7513324 7.67154907,23.8269247 7.72647694,23.891718 C7.70688728,23.9468695 7.70419851,23.9811946 7.68614529,24.0024067 C7.40113494,24.3337014 6.95287741,24.4841146 6.72279493,24.8767317 C6.27684207,24.8651614 6.24342442,25.3511118 5.94304962,25.532379 C5.63191972,25.7202026 5.37110836,25.9932604 5.09493256,26.2370069 C4.81914087,26.4799821 4.54911084,26.7298994 4.28138549,26.9821308 C3.75323288,27.4792657 3.34569112,28.074362 2.90703637,28.6478606 C2.39040709,29.3227916 2.09080052,30.091056 1.8315256,30.8793754 C1.74049129,31.1570613 1.75047818,31.4690723 1.72051752,31.7660419 C1.69286153,32.0471989 1.58607868,32.3372264 1.80617427,32.5960143 C1.83037327,32.6245542 1.83767137,32.6986038 1.81808171,32.7298434 C1.62448978,33.0360693 1.75278285,33.2616891 1.96212333,33.5015789 C2.06660152,33.6215238 2.10309207,33.806262 2.15341061,33.9670884 C2.37273798,34.6632316 2.74110042,35.2849395 3.12444319,35.8958485 C3.45093753,36.4157382 3.80355142,36.9198153 4.16384752,37.4169502 C4.30520037,37.6124873 4.49917642,37.7698427 4.66818525,37.9453248 C5.80323322,39.1254899 7.06042849,40.1452142 8.51582503,40.9065364 C8.67676753,40.9906136 8.82772315,41.0962885 8.97675821,41.201192 C9.58749469,41.6319909 10.3203785,41.776619 10.9871951,42.0751313 C11.3593987,42.2421285 11.7150855,42.4542497 12.0995806,42.5811367 C12.4967513,42.7122662 12.921194,42.7585472 13.3310404,42.8538089 C13.8503584,42.9741394 14.3619943,43.139594 14.8863058,43.2248281 C15.4563265,43.3177758 16.0371023,43.3424589 16.6136529,43.3941394 C16.7649926,43.4072523 16.9240146,43.3837262 17.0680562,43.4215223 C17.5731621,43.5553515 18.0828774,43.5846628 18.6033478,43.5715498 C19.0289428,43.5607509 19.4560742,43.6286297 19.8820533,43.6240016 C20.4274909,43.6170595 20.9748491,43.595076 21.5172138,43.5387675 C22.5539293,43.4307785 23.5925655,43.3258749 24.6212147,43.1615774 C26.5018221,42.8615224 28.3286539,42.3624591 30.0705973,41.5714399 C30.8645547,41.2112196 31.6573598,40.854856 32.4106014,40.4078588 C33.5767624,39.7151868 34.6818497,38.958107 35.554934,37.8955727 C36.8144339,36.3629008 37.4743366,34.5934244 37.6859817,32.6334247 C37.8065926,31.5195957 37.6986574,30.4273645 37.4958468,29.3305051 C37.2262009,27.8768965 36.8674412,26.4460427 36.3723222,25.0591559 C35.8514677,23.5997622 35.2514863,22.16698 34.644975,20.7403686 C34.0265564,19.2852173 33.3585873,17.8516638 32.7121285,16.4088541 C32.1785984,15.2182758 31.6185646,14.038882 31.1199885,12.8336481 C30.6333199,11.656954 30.2008109,10.4571195 29.7602356,9.26191305 C29.2109569,7.77089399 28.906741,6.21662425 28.6086709,4.66119748 C28.588313,4.55629392 28.5525907,4.45486143 28.5111067,4.30521957 C28.4342845,4.38659697 28.3597669,4.43557768 28.3263493,4.50422781 C27.8208592,5.55480617 27.3111439,6.60384182 27.0003981,7.73579758 C26.8824761,8.16543939 26.6289628,8.53954401 26.4810801,8.95761558 C26.3892776,9.21794612 26.2356332,9.47981936 26.2325603,9.74207827 C26.2287192,10.0660452 26.1081083,10.2870369 25.9026089,10.499158 C25.8641978,10.5392682 25.8492175,10.6052186 25.8323166,10.6619128 C25.6782881,11.1748604 25.5346306,11.6912791 25.3721517,12.2015269 C24.9623052,13.4869813 24.5486177,14.7712786 24.1280162,16.0532619 C23.6451887,17.5253829 23.130864,18.987862 22.6733879,20.4680822 C22.3968279,21.3632336 21.9251396,22.1696797 21.6051752,23.0416906 C21.4165767,23.5561809 21.2771444,24.0899549 20.9410473,24.5369521 C20.9560276,24.9276408 20.607639,25.0930953 20.4232657,25.3561255 C20.2611708,25.5875305 19.8578543,25.5620759 19.6412157,25.3499547 C19.174905,24.89293 19.1061491,24.5033984 19.3650399,23.876291 C19.4407098,23.6934812 19.4764321,23.4940872 19.5490291,23.3097347 C19.7007529,22.9259882 19.8716823,22.5503408 20.0214856,22.165823 C20.1589973,21.8137018 20.2646278,21.4488534 20.4098218,21.1002033 C20.756674,20.2667599 21.1231159,19.4414157 21.4722728,18.609515 C21.594036,18.3191018 21.6489638,17.9943635 21.8037606,17.7255482 C22.2401107,16.9673114 22.3972121,16.0980002 22.7920782,15.3251077 C22.8869536,15.1392125 22.909232,14.9166781 22.9756832,14.7149701 C23.1973152,14.038882 23.4197155,13.3631797 23.6517185,12.6909484 C23.7308454,12.4607005 23.8529927,12.2451082 23.930199,12.014089 C24.0369819,11.6966785 24.1111153,11.3684692 24.2144411,11.0502874 C24.3043231,10.7737586 24.4518217,10.5118853 24.5105907,10.2303427 C24.6849771,9.39612791 25.079075,8.64290488 25.3702311,7.85419976 C25.6694536,7.04196848 25.9072183,6.220481 26.0835252,5.3777814 C26.1684137,4.97282278 26.2264145,4.56092202 26.2778854,4.15017828 C26.2993956,3.97662458 26.2863358,3.76836015 26.4956763,3.75409018 C26.6063003,3.74676236 26.7276793,3.89717556 26.8744097,3.99667968 C26.9447021,3.88830504 27.0445709,3.77105987 27.1052604,3.63568799 C27.3822045,3.0201509 27.650698,2.40075705 27.9165029,1.78020618 C28.0413389,1.48863597 28.3148259,1.35210707 28.6774267,1.42615664 C28.8264618,1.45701063 28.9801062,1.48786462 29.1172338,1.54995828 C29.2197914,1.59662494 29.3296472,1.67607396 29.3849592,1.77133565 C29.6653602,2.25304357 29.8539587,2.7729333 29.9572845,3.32174865 C30.1428101,4.30367688 30.3202694,5.28753348 30.5069474,6.26946171 C30.8004082,7.81177553 31.2079499,9.32014996 31.8375078,10.762574 C32.4951058,12.2686344 33.1346506,13.7827939 33.8083813,15.2811408 C34.3995281,16.5955208 35.0440664,17.8856032 35.6329085,19.2011402 C36.1725844,20.4067599 36.6730811,21.6301206 37.1831805,22.8492389 C37.4820188,23.5650514 37.7762478,24.283178 38.0505031,25.0086325 C38.1584383,25.2944176 38.1945447,25.6068142 38.2832743,25.9003128 C38.4549719,26.4676405 38.659319,27.0249407 38.8137316,27.5965109 C38.9109117,27.9578882 38.9266602,28.3408634 39.0065553,28.7080259 C39.116027,29.2094032 39.2520022,29.7046097 39.3925869,30.2669237" id="Fill-4" fill="#070707"></path>
                    <path d="M209.396936,34.5708632 C209.372603,34.5572937 209.323938,34.5305317 209.259437,34.4947235 C208.821834,34.8886144 208.797502,35.3499757 209.002205,35.8735303 C209.558768,37.2986993 210.566838,38.3360083 211.881577,39.1177594 C213.2052,39.9040336 214.650486,40.3559716 216.177654,40.5587595 C217.478103,40.73177 218.784732,40.7494856 220.097154,40.6880462 C221.102134,40.64093 222.076601,40.4377652 223.060338,40.2707856 C224.739682,39.9862041 226.343711,39.455111 227.888259,38.7773924 C228.711709,38.4159173 229.494219,37.9402327 230.235401,37.4332631 C231.609234,36.4924479 232.920884,35.4656929 234.293172,34.5229932 C235.19889,33.9006831 236.162543,33.3579052 237.106884,32.789873 C237.319699,32.6624709 237.545646,32.640609 237.785497,32.7917576 C238.585773,33.2960888 238.528224,33.5426005 238.413899,34.4117991 C238.354033,34.8671295 238.185249,35.3119058 238.036549,35.7517822 C237.632548,36.9455167 237.563026,38.1607363 237.690483,39.4053563 C237.744942,39.9387111 237.696663,40.4829967 237.678124,41.0216285 C237.661902,41.4890206 237.375317,41.7151781 236.915699,41.6503463 C236.44797,41.5843837 236.176061,41.3337258 236.10847,40.8542719 C236.064826,40.5444362 236.064826,40.2278157 236.056715,39.9142107 C236.048218,39.5832669 236.072551,39.2508154 236.049763,38.9210024 C235.960157,37.6311509 236.129713,36.3699459 236.463419,35.124949 C236.474234,35.0834868 236.464578,35.0371245 236.464578,34.9138687 C235.788669,35.3575143 235.15679,35.7710055 234.526457,36.1860045 C234.237554,36.3763537 233.945562,36.5621798 233.665156,36.7638369 C233.44423,36.9232779 233.251114,37.1204119 233.025167,37.2723143 C232.214462,37.8181077 231.402599,38.3631472 230.577604,38.8882095 C229.725573,39.4309875 228.855388,39.9628345 227.899074,40.2990553 C227.037,40.6024833 226.187672,40.9541582 225.269595,41.11473 C224.78603,41.199539 224.307101,41.3661417 223.835896,41.5466908 C223.305597,41.7491017 222.710797,41.795464 222.141488,41.8957272 C221.87267,41.9432202 221.597671,41.9745054 221.32499,41.9782746 C221.18865,41.9801593 221.051151,41.9047735 220.878118,41.8535111 C220.768428,42.1482697 220.465234,42.0513989 220.170924,42.12 C220.178649,42.0201138 220.184442,41.9537742 220.189463,41.8844193 C220.167834,41.8719806 220.143502,41.8467264 220.121486,41.8478572 C219.676931,41.8708498 219.232763,41.8953502 218.788594,41.9239968 C218.685856,41.9307816 218.569599,41.8618035 218.505485,42.0461219 C218.469951,42.1486466 218.34597,42.1075613 218.16753,41.9575435 C218.125045,41.9213583 218.063247,41.8893194 218.008788,41.8866809 C217.627962,41.8693421 217.24559,41.8651959 216.864764,41.8459725 C216.718382,41.8384339 216.573158,41.8033795 216.43759,41.7826484 C216.426389,41.8504957 216.415188,41.9187198 216.404374,41.9865671 C216.35146,41.9703591 216.264943,41.9680976 216.251039,41.9360586 C216.131693,41.6590157 215.923513,41.6865315 215.752411,41.8354185 C215.607187,41.9620667 215.465826,41.9492511 215.325237,41.9134428 C214.639672,41.7393016 213.920505,41.6288613 213.288627,41.3393797 C212.86068,41.1433766 212.392951,41.0649753 211.983929,40.8256253 C211.562935,40.5791137 211.081301,40.4264574 210.678459,40.1577069 C210.186784,39.8301555 209.72987,39.4449339 209.292653,39.0480275 C208.595501,38.4140327 208.116185,37.6266277 207.729952,36.7826834 C207.712571,36.7446135 207.671244,36.7163438 207.636483,36.6790278 C207.441435,36.7789141 207.275741,36.8901082 207.142876,37.0714111 C207.006922,37.2572371 206.81535,37.406878 206.639228,37.5625497 C206.47083,37.7110598 206.289686,37.8460005 206.115109,37.9881027 C205.253421,38.6880602 204.274705,39.1999299 203.281312,39.6921994 C202.972712,39.8448557 202.668746,40.0069352 202.360917,40.1592146 C202.022963,40.3269481 201.680374,40.4260804 201.322335,40.5078741 C200.603554,40.6710844 199.892112,40.869726 199.166379,40.9903434 C198.624493,41.0804294 198.065613,41.0992759 197.514457,41.098899 C196.352667,41.0981451 195.288979,40.7166928 194.373991,40.0578207 C193.504966,39.4317414 192.691171,38.7110528 192.143878,37.7770224 C191.625166,36.8923697 191.114952,36.0001785 190.841885,35.0016932 C190.587743,34.0729398 190.324718,33.146071 190.037746,32.2263639 C189.93578,31.8995663 189.758885,31.5938768 189.603619,31.284418 C189.478866,31.0363986 189.233221,30.9610128 188.981011,30.9802361 C188.723007,30.9998365 188.46732,31.0688145 188.214337,31.1328925 C187.977962,31.1928242 187.741587,31.2606714 187.516413,31.3518883 C187.384321,31.4054122 187.275403,31.5117062 187.156057,31.5942537 C186.908481,31.7650026 186.654339,31.9274591 186.414488,32.1083851 C185.66056,32.6752865 184.909336,33.2455803 184.163518,33.8234127 C184.045331,33.9146295 183.970401,34.0567318 183.861097,34.1603873 C183.005976,34.9726696 182.147379,35.7815596 181.290326,36.5912034 C180.71561,37.1347352 180.149392,37.6869364 179.564634,38.2195372 C178.984511,38.747238 178.302036,39.1154978 177.578234,39.4306106 C177.26384,39.5674359 176.983048,39.5757283 176.705732,39.4407877 C176.309457,39.247423 175.936741,39.0318195 175.674102,38.6416979 C175.195945,37.9311864 174.805463,37.183359 174.598828,36.3631612 C174.445107,35.7529129 174.333872,35.1211797 174.304132,34.4947235 C174.264349,33.6545484 174.329237,32.8106041 174.335416,31.9681674 C174.341596,31.0363986 174.334258,30.1046298 174.327692,29.1732378 C174.327306,29.0703362 174.306063,28.965173 174.277095,28.8656637 C174.1956,28.5863592 174.059646,28.502304 173.763018,28.5603511 C173.355542,28.6398831 173.022222,28.8377709 172.773874,29.1713532 C172.567625,29.4468884 172.310007,29.6922693 172.145858,29.9885356 C172.008745,30.236555 171.747651,30.4468814 171.796703,30.7770713 C171.464542,31.3503806 171.200358,31.9772137 170.782839,32.4841834 C170.246747,33.135517 169.599419,33.7027953 168.977197,34.2836431 C168.568175,34.6654724 168.146408,35.0461708 167.681383,35.3567604 C166.984231,35.821891 166.273561,36.2851369 165.51384,36.6375656 C164.816688,36.9609708 164.056966,37.1106117 163.276388,36.7698678 C162.83106,36.5749954 162.513963,36.2542287 162.237419,35.8991614 C161.738019,35.2587588 161.491602,34.5282702 161.53486,33.7076954 C161.576187,32.9206674 161.710983,32.1547474 161.951606,31.4023968 C162.357538,30.1340302 162.869684,28.9108952 163.614729,27.7959388 C164.085934,27.0907043 164.569884,26.3779313 165.278237,25.8762386 C165.889645,25.4423932 166.561691,25.0707411 167.35347,25.1133341 C168.30206,25.1642195 169.096929,25.6945588 169.432566,26.5682805 C169.806827,27.5415116 169.603668,28.4619726 169.182287,29.3564254 C168.887204,29.9828816 168.548864,30.5901145 168.221724,31.2018705 C168.07959,31.4679825 167.914668,31.7216558 167.763264,31.9832446 C167.618427,32.2331486 167.353084,32.2753647 167.106281,32.3292655 C166.939428,32.3654507 166.527703,31.9945525 166.478651,31.7665103 C166.442345,31.5972692 166.397542,31.4317973 166.50028,31.2448404 C166.7915,30.7156319 167.045642,30.1675769 167.32373,29.6319606 C167.6837,28.9406726 167.908102,28.2135762 167.94518,27.4374791 C167.974148,26.8328848 167.628469,26.6022042 167.063409,26.8558775 C166.598384,27.0643193 166.184341,27.3440007 165.869561,27.7518381 C165.731675,27.9297486 165.548987,28.0737355 165.402218,28.2456152 C164.693865,29.076744 164.22575,30.0296209 163.878526,31.0526065 C163.636358,31.7676411 163.407707,32.481168 163.295313,33.2282415 C163.210728,33.7909968 163.259394,34.3382979 163.486113,34.8610986 C163.675367,35.2972056 163.882775,35.4027458 164.322695,35.2029733 C164.920971,34.9312074 165.523882,34.6443643 166.059588,34.273843 C166.823172,33.7461422 167.557402,33.1690637 168.250305,32.5546692 C169.265713,31.6541855 169.981791,30.528675 170.590881,29.3379559 C170.969004,28.5991748 171.500848,27.9893034 172.1559,27.4683873 C172.584619,27.1280203 173.042692,26.852862 173.59771,26.8234616 C174.863398,26.7563682 175.577158,27.2938691 175.866833,28.3978946 C176.190111,29.629699 176.151873,30.8705498 176.099346,32.1189391 C176.067288,32.885236 176.001628,33.6571869 176.060722,34.4182068 C176.141445,35.4491081 176.289759,36.4826478 176.80036,37.4189397 C176.982662,37.7521451 177.111664,37.8561775 177.475882,37.6130583 C178.194663,37.1343582 178.835811,36.57198 179.441812,35.9734165 C180.796719,34.635318 182.211107,33.3605437 183.63013,32.0880309 C184.294838,31.4924829 185.010529,30.9742053 185.761753,30.5113363 C186.474741,30.0722138 187.260726,29.7424008 188.025082,29.3869567 C188.198115,29.3062938 188.41711,29.2885782 188.613703,29.2919705 C189.976721,29.3153401 190.874328,29.8091173 191.33974,31.1000996 C191.498096,31.5384682 191.603537,31.9949294 191.732153,32.4430981 C191.944196,33.1822562 192.121863,33.933476 192.376005,34.6586876 C192.742927,35.7084353 193.133023,36.7491367 193.93214,37.593081 C194.340775,38.0242879 194.731644,38.4558718 195.232975,38.7962388 C196.282372,39.5093888 197.429486,39.7053919 198.668524,39.5157966 C199.817183,39.3397707 200.907906,38.9775417 201.967345,38.5191959 C203.852552,37.7035212 205.454649,36.5071482 206.862471,35.050317 C206.998425,34.9100994 207.136697,34.768751 207.091121,34.5373165 C206.945511,33.8015508 207.006922,33.0729467 207.184203,32.348112 C207.439118,31.3085414 207.884059,30.3583031 208.594343,29.5414976 C208.831104,29.2693548 209.118075,29.0345279 209.401185,28.8049781 C209.716738,28.5482893 210.096792,28.4261643 210.503109,28.3801789 C210.847244,28.3413552 211.773818,28.7390155 211.8669,29.0104045 C212.002855,29.4088186 212.08744,29.8260791 211.936809,30.2440935 C211.814759,30.5829528 211.6649,30.8965579 211.412303,31.1826471 C211.135374,31.4958752 210.96041,31.8939124 210.735622,32.252372 C210.559886,32.5328073 210.367541,32.8034424 210.199143,33.0880239 C210.118421,33.225603 210.075549,33.3842902 210.018,33.534308 C210.002937,33.5742625 210.010275,33.646256 209.986329,33.6560561 C209.583101,33.8256742 209.726393,34.2957049 209.396936,34.5708632" id="Fill-6" fill="#070707"></path>
                    <path d="M152.381117,5.45471719 C152.462182,5.32999929 152.492918,5.28265268 152.590889,5.13214436 C152.361907,5.2029718 152.169423,5.20374167 152.110257,5.29304584 C151.987314,5.47742816 151.854765,5.42623223 151.713765,5.38388974 C151.396417,5.28881159 151.090596,5.28188282 150.787079,5.43662539 C150.725607,5.46780487 150.641468,5.46280075 150.568086,5.46049116 C149.939154,5.44085964 149.320595,5.52169532 148.703573,5.63717485 C148.496491,5.67566803 148.274808,5.62793649 148.061194,5.64179403 C147.882542,5.65372691 147.675459,5.63717485 147.633198,5.8558161 C147.51717,5.81924758 147.360417,5.7468804 147.345818,5.76882152 C147.165245,6.04289294 146.877864,5.93357232 146.638509,5.98746276 C146.414137,5.7141612 146.145967,5.90008325 145.893165,5.91548052 C145.604632,5.93318738 145.31341,5.92779834 145.027183,5.96436686 C144.285296,6.05829021 143.544178,6.16183686 142.805366,6.27770132 C142.478413,6.32928218 142.152997,6.35237809 141.824124,6.37470413 C141.055344,6.42628499 140.27619,6.51289464 139.535072,6.770414 C139.493963,6.78465647 139.43057,6.81083183 139.408287,6.79274004 C139.123596,6.56370563 138.881551,6.77657291 138.61876,6.84817022 C138.404378,6.90667985 138.170401,6.88858805 137.953713,6.94132371 C137.248326,7.11454301 136.553696,7.33664864 135.842545,7.47830353 C135.196324,7.60687075 134.607733,7.85091749 134.072545,8.21352323 C133.747129,8.4337042 133.455907,8.71162494 133.176979,8.99108541 C133.067483,9.10002111 133.030216,9.2828637 132.965286,9.43414189 C132.91073,9.56078444 132.877689,9.69820509 132.811607,9.81714901 C132.391679,10.5754646 132.275651,11.391135 132.29755,12.2468384 C132.31215,12.824236 132.272962,13.4035584 132.24261,13.981341 C132.236079,14.1037493 132.162697,14.2226932 132.123893,14.3331686 C132.162697,14.3789755 132.263357,14.4432591 132.265662,14.5102372 C132.276804,14.8870854 132.249526,15.2654734 132.264125,15.6423216 C132.276419,15.9695136 132.31676,16.2967056 132.36248,16.621588 C132.572636,18.1259014 132.817754,19.6236709 133.213478,21.0937254 C133.588071,22.4852538 133.939228,23.882941 134.31459,25.3306695 C134.186652,25.4792531 134.021063,25.6713341 133.807448,25.92 C133.584229,25.6289916 133.335269,25.3791709 133.226157,25.0542884 C132.825823,23.8652342 132.422799,22.6754101 132.077789,21.4694188 C131.850344,20.6749196 131.735469,19.849241 131.545291,19.0431938 C131.191828,17.5450393 130.988588,16.0272534 130.840287,14.4956098 C130.714655,13.202239 130.713886,11.9142573 130.877554,10.6343592 C131.033923,9.41258571 131.439636,8.25971504 132.374774,7.39939252 C132.952608,6.86780174 133.656843,6.51135491 134.413329,6.27731639 C134.485558,6.25499035 134.566624,6.25537528 134.635011,6.22573553 C135.403023,5.89392434 136.223285,5.77805988 137.036248,5.62601183 C138.195374,5.40852537 139.36833,5.28419241 140.532066,5.10981831 C141.540586,4.95815519 142.561016,4.91735243 143.560315,4.72642627 C144.392103,4.56744944 145.236186,4.62210975 146.069128,4.51779324 C146.401843,4.47622061 146.739169,4.45273977 147.065353,4.3792178 C147.949777,4.17943821 148.847648,4.06626827 149.747823,4.08628472 C150.139321,4.09475322 150.486252,4.00313946 150.853545,3.93924078 C151.290763,3.86340922 151.736048,3.83107495 152.178644,3.79258178 C152.628156,3.75370367 153.079204,3.73561187 153.528716,3.69942829 C154.354742,3.63360495 155.181152,3.57548025 156.004872,3.48694595 C156.740996,3.40803493 157.48634,3.3991815 158.212858,3.30448828 C159.061551,3.19401286 159.918697,3.2017115 160.763549,3.05197304 C161.206913,2.97344696 161.672945,3.03118672 162.126683,3.00154698 C162.463241,2.97960587 162.797109,2.91262774 163.132898,2.87259483 C163.497502,2.82948247 163.86249,2.76904818 164.227862,2.76096462 C165.054272,2.74287282 165.88145,2.764429 166.707476,2.74325775 C167.041728,2.73478926 167.374059,2.65510838 167.708312,2.61315081 C167.890037,2.59043984 168.073684,2.56464941 168.256562,2.56426448 C168.780992,2.56310968 169.303118,2.53924391 169.826011,2.51037403 C170.35121,2.48111921 170.879098,2.51152883 171.405833,2.49882608 C172.091242,2.48265894 172.776652,2.42530411 173.461677,2.43030822 C174.237372,2.43531233 175.0123,2.4942069 175.787996,2.51961239 C176.046561,2.52769596 176.306279,2.48689319 176.564076,2.49844114 C176.914848,2.51460828 177.264469,2.56041516 177.614473,2.59197957 C177.718206,2.600833 177.823092,2.60660697 177.92721,2.60776177 C178.018265,2.6093015 178.12123,2.57388777 178.199606,2.60391245 C178.86158,2.85912222 179.567736,2.71323308 180.24354,2.84295508 C181.315068,3.04812372 182.37046,3.29948417 183.335565,3.83069002 C183.728216,4.04663675 184.083215,4.30916022 184.21,4.81534551 C184.106651,4.85460855 184.014827,4.89002227 183.917625,4.92697572 C183.975255,5.01589496 184.037879,5.1132827 184.101272,5.21067044 C184.086672,5.23492114 184.072457,5.25955678 184.058242,5.28380748 C183.742431,5.15793479 183.42662,5.03244703 183.11081,4.9073442 C182.965198,4.91234831 182.794615,4.95315108 182.644009,4.91542777 C182.401196,4.85383868 182.176824,4.72026736 181.934779,4.65367416 C181.434554,4.51625352 180.928181,4.40308357 180.424113,4.28029034 C180.379546,4.26912732 180.334211,4.25642457 180.288875,4.25488484 C179.006422,4.21254234 177.739721,3.98620246 176.460342,3.92692297 C176.051555,3.90767638 175.653911,3.95771751 175.237056,3.85147634 C174.898961,3.76525162 174.513995,3.86879827 174.149775,3.88150102 C173.586541,3.90074761 173.014854,3.86032977 172.46353,3.94886408 C172.103921,4.00660384 171.785421,3.93192708 171.449632,3.89189417 C171.388929,3.88458047 171.327073,3.87495718 171.266369,3.87726677 C169.737261,3.93269694 168.207385,3.98928191 166.678277,4.04586689 C166.647541,4.04702168 166.607584,4.0350888 166.587606,4.05010113 C166.23107,4.31262461 165.833041,4.09398336 165.460369,4.15210806 C165.285943,4.17943821 165.115359,4.23063414 164.941702,4.26566293 C164.888298,4.27644102 164.800317,4.29414788 164.781107,4.26835745 C164.628196,4.06511347 164.419193,4.16019162 164.276655,4.21908618 C163.98697,4.3391849 163.720336,4.29299309 163.426809,4.26758759 C163.099088,4.23871771 162.762531,4.33264106 162.428279,4.36074108 C161.700608,4.42117537 160.971015,4.46967677 160.243344,4.53280558 C160.04894,4.54974258 159.858762,4.60555769 159.665126,4.63635223 C159.563698,4.6529043 159.45497,4.677155 159.357768,4.65675361 C159.154143,4.61441112 158.998159,4.65213443 158.802602,4.75183176 C158.625487,4.84229073 158.362695,4.76299478 158.137555,4.75991533 C157.937772,4.75722081 157.719932,4.60517276 157.54589,4.8334373 C157.532828,4.85075923 157.490566,4.84960443 157.461367,4.85075923 C157.050659,4.86538664 156.640336,4.87693459 156.230012,4.89425652 C156.09708,4.9000305 155.906902,4.80225783 155.891918,5.05785252 C155.74477,5.03129223 155.555745,5.29689516 155.44279,4.99010453 C155.429344,4.95276615 155.33022,4.91927709 155.27797,4.92813052 C154.891466,4.99356892 154.4992,5.04399498 154.126912,5.15908958 C154.013574,5.19450331 153.939424,5.24184991 153.809181,5.20797592 C153.438814,5.11174297 153.06691,5.04168539 152.754941,5.38158015 C152.698464,5.4427843 152.555927,5.42392264 152.381117,5.45471719" id="Fill-8" fill="#070707"></path>
                    <path d="M140.47,40.3573851 C140.566744,40.3892391 140.634989,40.3903904 140.670237,40.4264661 C141.194077,40.9572382 141.709667,41.497605 142.235757,42.0260745 C142.446118,42.2367715 142.680477,42.4221387 142.899462,42.6228574 C143.577792,43.2442024 144.209625,43.9261851 145.027445,44.3671521 C145.264804,44.4949519 145.508913,44.6181463 145.762021,44.7060326 C146.377729,44.9201837 146.931942,44.7739623 147.441533,44.3740602 C147.85738,44.0470769 148.108239,43.5984343 148.366596,43.1486404 C148.785443,42.4190685 149.092173,41.6349994 149.35128,40.8409519 C149.823749,39.3898676 150.240346,37.9199779 150.662193,36.4523909 C151.084039,34.9844201 151.494262,33.5126115 151.887986,32.0361975 C152.096472,31.2540473 152.261086,30.4599999 152.440324,29.670174 C152.636435,28.8047429 152.838547,27.9408469 153.015535,27.0719617 C153.146401,26.4283573 153.235645,25.7763096 153.352263,25.1300187 C153.439632,24.6487545 153.552124,24.1720958 153.633869,23.6900641 C153.83448,22.5141523 154.024593,21.3363216 154.21733,20.1592585 C154.431815,18.8494064 154.635802,17.5376354 154.860787,16.2293185 C155.023901,15.2829091 155.223012,14.343024 155.387251,13.3966146 C155.512493,12.6747184 155.614486,11.9486005 155.715354,11.2224827 C155.759226,10.908548 155.875469,10.6821159 156.193822,10.5727377 C156.335188,10.5239973 156.437556,10.503273 156.567672,10.5857864 C156.680915,10.6575538 156.812906,10.69977 156.936648,10.7542672 C157.323247,10.9235156 157.559106,11.3928825 157.455613,11.8019954 C157.213379,12.7576155 156.930648,13.7051763 156.737161,14.6711586 C156.622419,15.2414605 156.430806,15.8006326 156.461554,16.4112317 C156.473554,16.6484097 156.442056,16.9596579 156.340063,17.1918468 C156.093329,17.7567756 156.269192,18.396926 155.981962,18.9549468 C155.875094,19.1629573 155.904717,19.4438866 155.867594,19.691043 C155.831972,19.9263021 155.790724,20.1604099 155.750977,20.3949014 C155.717979,20.5890957 155.694356,20.7859765 155.647484,20.9767168 C155.610361,21.1256247 155.572864,21.2472839 155.651984,21.4111594 C155.703355,21.5166997 155.644859,21.7016833 155.591238,21.8317858 C155.493369,22.0708827 155.452497,22.3053742 155.423999,22.565963 C155.394751,22.831541 155.386876,23.1174595 155.289383,23.3941672 C155.148767,23.7902315 155.123644,24.2292795 155.054274,24.6510572 C154.949656,25.2850671 154.857037,25.9213796 154.744169,26.5534706 C154.683423,26.8942701 154.575056,27.2258588 154.517685,27.5666583 C154.480937,27.7823444 154.500811,28.008009 154.489936,28.2286843 C154.486937,28.2874031 154.476812,28.3522625 154.448314,28.401003 C154.209455,28.8070456 154.143085,29.2399531 154.181332,29.712774 C154.199331,29.9319142 154.106337,30.1633355 154.050841,30.3859297 C153.90985,30.9458694 153.755361,31.5019713 153.61887,32.0630623 C153.53525,32.408851 153.39126,32.7366019 153.366137,33.1015797 C153.353387,33.2762011 153.269018,33.4588819 153.175274,33.6112438 C152.924041,34.0203567 152.802549,34.4590209 152.817548,34.9399013 C152.818673,34.9702202 152.831047,35.0128201 152.816423,35.028939 C152.500695,35.3781817 152.710306,35.8486999 152.543067,36.2420777 C152.384452,36.6166501 152.320707,37.0322874 152.20259,37.4256651 C151.918734,38.3720745 151.627753,39.3157974 151.339397,40.2606717 C151.259528,40.5231794 151.190907,40.789525 151.093414,41.044357 C151.056291,41.141838 150.918675,41.2020919 150.889427,41.2991891 C150.858679,41.4016592 150.943049,41.543659 150.906676,41.6411399 C150.683941,42.2379228 150.469456,42.8419976 150.190099,43.4115319 C150.091481,43.6126343 149.95124,43.7980016 149.859371,44.0159904 C149.523394,44.8161784 148.980805,45.4187181 148.176484,45.7491554 C147.968748,45.8343553 147.767761,45.937593 147.556276,46.0112793 C146.957066,46.2204412 146.352606,46.2223601 145.750396,46.0201063 C144.73159,45.6770042 143.925394,45.0333997 143.193818,44.239736 C142.48249,43.467948 141.876531,42.6209385 141.269072,41.7700911 C141.085709,41.5129563 140.868223,41.2788486 140.703234,41.0105841 C140.597866,40.8386492 140.561119,40.6225793 140.47,40.3573851" id="Fill-10" fill="#070707"></path>
                    <path d="M78.7381417,35.64 C78.2318031,35.35114 78.1670917,34.8918114 78.1239507,34.4515903 C78.0531844,33.7341236 78.1428722,33.0241499 78.3449535,32.3291626 C78.3899866,32.1748042 78.4213963,32.0166992 78.3967984,31.8383629 L78.1686054,32.2815812 C78.1564956,31.7057345 78.3687946,31.1928301 78.6389932,30.7203886 C78.8569686,30.3401125 79.0598068,29.949346 79.3318976,29.5881773 C79.6531842,29.1606945 79.9744708,28.7249693 80.3037045,28.3019824 C80.641642,27.8673811 81.0450478,27.4829838 81.4185577,27.0757324 C81.9332218,26.514872 82.624234,26.2417476 83.3118404,25.983984 C83.5506294,25.8940665 83.848075,25.9165459 84.1125972,25.9457691 C84.4512916,25.9832347 84.5508185,26.1038741 84.5689831,26.4444366 C84.6344514,27.6744331 84.4104212,28.845234 83.8355868,29.9485967 C83.2369114,31.0961688 82.4649152,32.1246003 81.5937706,33.0732299 C81.0283969,33.6895395 80.3778767,34.2301685 79.7549817,34.7932768 C79.4336951,35.0836354 79.0897027,35.3488921 78.7381417,35.64" id="Fill-12" fill="#FEFEFE"></path>
                    <path d="M77.52976,34.0060345 C77.56216,33.7406897 77.59456,33.4753448 77.62615,33.21 C77.70391,33.2173153 77.78248,33.2259606 77.86024,33.2339409 C77.80354,33.4959606 77.74684,33.7586453 77.69014,34.02 C77.63668,34.0160099 77.58322,34.0106897 77.52976,34.0060345" id="Fill-14" fill="#FEFEFE"></path>
                </g>
            </g>
        </g>
    </g>
</svg>