<?xml version="1.0" encoding="UTF-8"?>
<svg width="306px" height="174px" viewBox="0 0 306 174" version="1.1" xmlns="http://www.w3.org/2000/svg" xmlns:xlink="http://www.w3.org/1999/xlink">
    <!-- Generator: Sketch 59.1 (86144) - https://sketch.com -->
    <title>Logo white + gold</title>
    <desc>Created with Sketch.</desc>
    <defs>
        <polygon id="path-1" points="0.063459854 0.854547998 288.905216 0.854547998 288.905216 125.613529 0.063459854 125.613529"></polygon>
        <polygon id="path-3" points="0.321184607 0.696672 40.5284769 0.696672 40.5284769 52.184556 0.321184607 52.184556"></polygon>
    </defs>
    <g id="GQ-Editor's-Club-Home" stroke="none" stroke-width="1" fill="none" fill-rule="evenodd">
        <g id="GQ-Editors-Home" transform="translate(-1238.000000, -798.000000)">
            <g id="Hero-Card" transform="translate(762.000000, 527.000000)">
                <g id="Logo-white-+-gold" transform="translate(475.000000, 271.000000)">
                    <g id="Group" transform="translate(112.798193, 0.000000)">
                        <path d="M178.838238,85.2086386 L168.17596,71.6013976 C173.991941,64.3116145 177.384243,54.7541349 177.384243,43.9002217 C177.384243,18.3052193 156.705082,0.162585542 132.634678,0.162585542 C110.824749,0.162585542 91.9228101,14.9036747 88.5305077,36.934547 L47.8186402,36.934547 L47.8186402,57.6700482 L59.7738302,57.6700482 C58.1587509,60.0992675 52.6659976,63.6633976 44.7495657,63.6633976 C33.2797473,63.6633976 24.8790036,54.9156578 24.8790036,43.9002217 C24.8790036,32.8847855 33.1176036,23.9755229 44.7495657,23.9755229 C52.3427698,23.9755229 56.0583,26.7288506 59.2895183,30.9411976 L88.2072799,30.9411976 C85.6225172,21.2211325 73.3440994,7.10542736e-15 44.7495657,7.10542736e-15 C20.6781018,7.10542736e-15 3.12638804e-13,18.1436964 3.12638804e-13,43.9002217 C3.12638804e-13,69.6578096 19.2241065,87.6389205 44.7495657,87.6389205 C62.5207367,87.6389205 84.4917497,75.8126819 88.6915917,52.1623301 C92.4071219,73.3834627 110.017209,87.8004434 132.634678,87.8004434 C139.903594,87.8004434 146.689259,86.3424867 152.666324,83.589159 L154.605691,86.0183783 L178.838238,85.2086386 Z M152.50524,43.9002217 C152.50524,46.1679181 152.182012,48.4366771 151.535556,50.541788 L148.304338,46.4920265 L124.07179,47.3028289 L136.83452,63.5018747 C135.541608,63.8259831 134.088673,63.8259831 132.634678,63.8259831 C121.163799,63.8259831 112.925199,54.9156578 112.925199,43.9002217 C112.925199,32.8847855 121.002715,24.1370458 132.634678,24.1370458 C144.26558,24.1370458 152.50524,32.8847855 152.50524,43.9002217 L152.50524,43.9002217 Z" id="Fill-1" fill="#9E885D"></path>
                        <path d="M50.4744071,45.0234434 L53.2011781,45.0234434 C54.4622964,45.0234434 55.2020112,44.4708651 55.2020112,43.5622988 L55.2020112,43.5474217 C55.2020112,42.8269446 54.7940024,42.4635181 54.1528456,42.2520506 C54.6202012,42.0480217 54.9678036,41.6845952 54.9678036,41.0703831 L54.9678036,41.055506 C54.9678036,40.6910169 54.8395722,40.4115398 54.6276195,40.1915711 C54.3181686,39.8897783 53.850813,39.7229422 53.1852817,39.7229422 L50.4744071,39.7229422 L50.4744071,45.0234434 Z M53.5254657,41.3732386 C53.5254657,41.6845952 53.269003,41.8354916 52.8228426,41.8354916 L51.9008485,41.8354916 L51.9008485,40.903547 L52.8609941,40.903547 C53.291258,40.903547 53.5254657,41.0629446 53.5254657,41.3583614 L53.5254657,41.3732386 Z M53.7374183,43.3423301 L53.7374183,43.3572072 C53.7374183,43.6685639 53.488374,43.8428386 53.0347953,43.8428386 L51.9008485,43.8428386 L51.9008485,42.8652 L53.0188988,42.8652 C53.510629,42.8652 53.7374183,43.0543518 53.7374183,43.3423301 L53.7374183,43.3423301 Z M55.7541479,45.0234434 L57.2187408,45.0234434 L57.2187408,43.4177783 L57.8683757,43.4177783 L58.9334379,45.0234434 L60.6174018,45.0234434 L59.3562834,43.175494 C60.0133367,42.8960169 60.4436006,42.3583157 60.4436006,41.5400747 L60.4436006,41.5251976 C60.4436006,41.0023735 60.2846361,40.6006916 59.9751852,40.2903976 C59.6201645,39.9344096 59.0616692,39.7229422 58.2530698,39.7229422 L55.7541479,39.7229422 L55.7541479,45.0234434 Z M57.2187408,42.2679904 L57.2187408,40.9864337 L58.185245,40.9864337 C58.6695568,40.9864337 58.9790077,41.1989639 58.9790077,41.6229614 L58.9790077,41.6389012 C58.9790077,42.0246434 58.6843935,42.2679904 58.1926633,42.2679904 L57.2187408,42.2679904 Z M61.1017136,45.0234434 L62.5663065,45.0234434 L62.5663065,39.7229422 L61.1017136,39.7229422 L61.1017136,45.0234434 Z M64.7038491,45.0234434 L66.168442,45.0234434 L66.168442,41.009812 L67.7549077,41.009812 L67.7549077,39.7229422 L63.1258615,39.7229422 L63.1258615,41.009812 L64.7038491,41.009812 L64.7038491,45.0234434 Z M68.3144627,45.0234434 L69.7790556,45.0234434 L69.7790556,39.7229422 L68.3144627,39.7229422 L68.3144627,45.0234434 Z M72.7018828,45.1148313 C73.986316,45.1148313 74.8394254,44.4708651 74.8394254,43.3880241 L74.8394254,43.373147 C74.8394254,42.3806313 74.084874,41.986388 72.875684,41.721788 C72.1349095,41.5549518 71.9536899,41.4486867 71.9536899,41.2064024 L71.9536899,41.1915253 C71.9536899,40.9938723 72.1274911,40.8504145 72.4835716,40.8504145 C72.951987,40.8504145 73.4808089,41.0246892 73.9640609,41.3732386 L74.6952976,40.3360916 C74.1219657,39.8738386 73.4204024,39.6315542 72.5206633,39.6315542 C71.2521266,39.6315542 70.4742604,40.3435301 70.4742604,41.3275446 L70.4742604,41.3424217 C70.4742604,42.4263253 71.3422065,42.7440578 72.4676751,43.0022819 C73.193613,43.1765566 73.3674142,43.2902602 73.3674142,43.5176675 L73.3674142,43.5325446 C73.3674142,43.7599518 73.1554615,43.8959711 72.754871,43.8959711 C72.1433876,43.8959711 71.5689959,43.6760024 71.040174,43.2594434 L70.225216,44.2360193 C70.8822692,44.8194145 71.7650521,45.1148313 72.7018828,45.1148313 L72.7018828,45.1148313 Z M75.4297136,45.0234434 L76.8932467,45.0234434 L76.8932467,43.0086578 L78.7753864,43.0086578 L78.7753864,45.0234434 L80.2399793,45.0234434 L80.2399793,39.7229422 L78.7753864,39.7229422 L78.7753864,41.7069108 L76.8932467,41.7069108 L76.8932467,39.7229422 L75.4297136,39.7229422 L75.4297136,45.0234434 L75.4297136,45.0234434 Z" id="Fill-2" fill="#FFFFFF"></path>
                    </g>
                    <path d="M273.384735,100.683994 C276.830645,98.3222263 279.253871,93.4880166 278.112769,89.3275232 C277.797352,87.8651184 276.440948,86.6874581 274.808958,87.6491424 C273.583889,88.3712115 273.280313,90.0882746 274.002652,91.3099897 C274.695925,92.1104979 275.905923,91.1778253 275.423646,90.3633485 C275.182507,89.9561102 275.320301,88.8859006 275.954366,88.8418458 C276.799426,88.7827479 276.917843,90.4707993 276.947985,90.8930808 C277.184817,94.2691836 275.080239,97.5969337 272.450323,99.4762474 C271.634328,99.9576268 272.357743,101.179342 273.384735,100.683994" id="Fill-3" fill="#FFFFFF"></path>
                    <path d="M112.798193,163.85387 L112.798193,163.799477 C112.798193,158.251418 116.99003,153.9 122.685226,153.9 C126.526796,153.9 128.998296,155.531782 130.663872,157.842427 L126.741709,160.916662 C125.667144,159.58404 124.431394,158.68656 122.631497,158.68656 C119.998813,158.68656 118.145188,160.971055 118.145188,163.745084 L118.145188,163.799477 C118.145188,166.655095 119.998813,168.885197 122.631497,168.885197 C124.592579,168.885197 125.747736,167.960521 126.87603,166.573506 L130.798193,169.401928 C129.02516,171.876798 126.634253,173.7 122.497177,173.7 C117.123318,173.7 112.798193,169.53791 112.798193,163.85387" id="Fill-4" fill="#FFFFFF"></path>
                    <polyline id="Fill-5" fill="#FFFFFF" points="167.698193 153.9 172.93909 153.9 172.93909 168.210252 182.098193 168.210252 182.098193 172.8 167.698193 172.8 167.698193 153.9"></polyline>
                    <path d="M217.198193,164.814084 L217.198193,153.9 L222.617548,153.9 L222.617548,164.70301 C222.617548,167.507627 224.027686,168.840515 226.185431,168.840515 C228.369763,168.840515 229.778838,167.563164 229.778838,164.841852 L229.778838,153.9 L235.198193,153.9 L235.198193,164.675241 C235.198193,170.924219 231.631372,173.7 226.129068,173.7 C220.654414,173.7 217.198193,170.895383 217.198193,164.814084" id="Fill-6" fill="#FFFFFF"></path>
                    <g id="Group-10" transform="translate(0.298193, 47.700000)">
                        <mask id="mask-2" fill="white">
                            <use xlink:href="#path-1"></use>
                        </mask>
                        <g id="Clip-8"></g>
                        <path d="M280.956869,117.767647 L276.888035,117.767647 L276.888035,121.318941 L281.012926,121.318941 C282.662882,121.318941 283.570358,120.685765 283.570358,119.557059 L283.570358,119.502 C283.570358,118.456941 282.74538,117.767647 280.956869,117.767647 Z M282.800378,112.289294 C282.800378,111.215647 281.947901,110.637529 280.379385,110.637529 L276.888035,110.637529 L276.888035,114.023647 L280.242946,114.023647 C281.865403,114.023647 282.800378,113.473059 282.800378,112.344353 L282.800378,112.289294 Z M271.690673,106.341882 L281.562911,106.341882 C283.982847,106.341882 285.687801,106.948588 286.815272,108.049765 C287.585251,108.847059 288.052739,109.865647 288.052739,111.187059 L288.052739,111.243176 C288.052739,113.473059 286.787772,114.794471 285.082818,115.537765 C287.420255,116.308588 288.905216,117.63 288.905216,120.245294 L288.905216,120.300353 C288.905216,123.603882 286.210288,125.613529 281.617909,125.613529 L271.690673,125.613529 L271.690673,106.341882 L271.690673,106.341882 Z" id="Fill-7" fill="#FFFFFF" mask="url(#mask-2)"></path>
                        <path d="M87.5840453,105.700235 C87.5036628,105.765882 79.4812796,112.388824 70.9691978,116.204824 C68.6307022,117.504 48.7709409,126.328235 39.4021511,123.214235 C37.4549912,122.567294 36.1582949,121.472471 35.4359102,119.867294 C33.0307818,114.516 40.0653066,100.996941 55.6267204,88.488 C55.9387314,88.2370588 56.0402672,87.8061176 55.8731562,87.4429412 C55.7071029,87.0787059 55.3094212,86.8775294 54.9212584,86.9474118 C53.4236058,87.2258824 50.9793438,87.9098824 47.8835606,88.776 C35.4602365,92.2542353 9.61303796,99.4902353 3.76415474,90.0878824 C-1.35282482,81.8608235 9.99697007,55.3870588 43.9067431,29.0382353 C63.1456555,14.0876471 77.2644153,7.71035294 85.7204409,4.99235294 C95.3049942,1.91117647 103.090461,1.80529412 106.544792,4.71282353 C112.84424,10.0122353 108.781752,24.1687059 96.1944898,40.7784706 C84.8827708,55.7068235 75.5097504,62.9502353 75.4156182,63.0211765 C75.0327438,63.3144706 74.959765,63.8618824 75.252738,64.2451765 C75.5457109,64.6284706 76.0925234,64.7004706 76.4753978,64.4103529 C76.5705876,64.3362353 86.1160073,56.9689412 97.5842606,41.8341176 C113.601528,20.6989412 113.294805,8.10952941 107.668031,3.37447059 C103.692272,0.0307058824 95.4985467,0.0137647059 85.1863204,3.32894118 C72.8687628,7.28788235 58.2243438,15.7012941 42.8363869,27.6575294 C7.66376277,54.9889412 -3.31479197,82.0122353 2.28342482,91.0122353 C8.82296277,101.524235 34.5390109,94.3274118 48.3531635,90.4595294 C49.5631314,90.1207059 50.6726212,89.8104706 51.6583642,89.5425882 C40.023,99.7602353 30.6277686,113.429647 33.8441255,120.584118 C34.7653511,122.631882 36.4502102,124.074 38.8521657,124.872353 C40.4101051,125.389059 42.209192,125.610353 44.1500058,125.610353 C54.7985693,125.610353 69.6608672,118.930235 71.749754,117.764471 C80.4162547,113.883882 88.3646015,107.322353 88.6988234,107.043882 C89.0700635,106.735765 89.1208314,106.186235 88.8130511,105.814588 C88.5052708,105.442941 87.9563431,105.392118 87.5840453,105.700235" id="Fill-9" fill="#FFFFFF" mask="url(#mask-2)"></path>
                    </g>
                    <path d="M231.529831,110.536426 C229.212007,109.717442 228.935347,109.125483 228.711484,108.265126 C228.523524,107.544803 229.710419,106.1328 231.41262,105.052845 C232.316519,104.479981 234.545642,103.890144 235.679739,103.890144 C235.985967,103.890144 236.210885,103.932578 236.311201,104.029116 C236.312257,104.032299 236.37667,104.29327 235.957456,105.030567 C234.586825,107.438717 233.15178,109.144579 231.529831,110.536426 Z M208.001014,119.363834 C204.242866,119.183488 201.705403,117.887118 200.81312,116.601357 C200.494221,116.143066 200.405521,115.713418 200.548075,115.325143 C201.165809,113.640499 202.40339,113.29572 204.069689,113.29572 C204.615618,113.29572 205.875374,113.854793 206.84263,115.054624 C207.527946,115.906494 208.24494,117.318498 208.001014,119.363834 Z M165.04049,105.793325 C165.368892,105.218339 165.698351,104.634867 166.028865,104.039725 C165.843017,104.616832 165.660336,105.193939 165.480824,105.769986 C165.341437,105.777412 165.196771,105.784838 165.04049,105.793325 Z M103.634522,127.033845 C103.611291,127.058245 103.58806,127.082645 103.563773,127.108105 C103.450785,123.798225 103.806643,119.826369 104.570099,115.545802 C106.03471,115.628549 107.020973,116.50694 107.463419,116.90158 L107.59647,117.018275 C107.960774,117.331228 108.511984,117.286672 108.823491,116.917493 C109.136054,116.550436 109.090648,115.997728 108.724231,115.683714 L108.618635,115.591419 C108.102273,115.131006 106.833013,114.000131 104.897445,113.815541 C106.452869,106.044748 109.277552,97.4401204 113.024085,89.998194 C122.059902,72.0463368 128.805351,65.6504175 132.105214,65.6504175 C132.783138,65.6504175 133.040791,65.8975976 133.189681,66.1118912 C134.92145,68.6155186 130.679673,80.0590054 129.286867,83.8208116 C124.116905,97.7721693 108.715783,121.665898 103.634522,127.033845 Z M101.956607,128.85534 C98.9186211,132.153551 93.4857262,137.749583 89.0813326,137.749583 C88.0929576,137.749583 87.4213694,137.337969 87.0306656,136.492465 C85.8944567,134.037637 87.285151,128.303693 91.1657903,123.68047 C95.5036586,118.513025 100.230119,116.434802 102.761246,115.787678 C101.931264,120.695212 101.637708,125.209167 101.956607,128.85534 Z M266.440801,108.40516 C266.099727,108.064624 265.548518,108.064624 265.2085,108.408342 C265.141975,108.476237 258.377519,115.300744 251.914011,121.29778 C240.492788,131.894701 236.950055,133.477503 235.853972,133.477503 C235.550913,133.477503 235.435813,133.380965 235.355561,133.27594 C235.062005,132.889787 234.723043,131.664495 235.764216,127.781751 C236.061996,126.671031 237.301688,124.049648 238.500199,121.514195 C239.212969,120.006715 239.950026,118.449373 240.519187,117.147699 C241.023934,115.992424 241.073564,115.035529 240.671245,114.220789 C239.936299,112.733465 237.903583,112.242287 235.549857,111.673667 C234.882492,111.512416 234.17817,111.341618 233.463287,111.140054 C234.897276,109.770485 236.216165,108.102815 237.470641,105.899411 C238.433673,104.205219 238.033466,103.270602 237.528719,102.785789 C235.937393,101.25603 231.453802,102.955527 230.483379,103.572947 C229.518235,104.185062 226.415835,106.366189 227.026178,108.708565 C227.397874,110.135421 228.126484,110.997899 229.918442,111.782935 C228.220464,112.975341 226.311295,113.985278 224.083228,115.166015 L223.414807,115.519281 C221.778075,116.387063 216.11815,119.137871 209.753901,119.370199 C210.003107,116.835807 209.078089,115.04932 208.196366,113.953453 C206.922883,112.372773 205.156268,111.545303 204.069689,111.545303 C202.97783,111.545303 200.07923,111.545303 198.912399,114.720454 C198.572381,115.649766 198.739222,116.673495 199.383355,117.602808 C200.724419,119.534632 203.884897,120.851158 207.634597,121.095156 C206.74865,124.389123 204.36958,129.932112 198.393924,129.932112 C196.61675,129.932112 194.995857,129.07706 193.947292,127.587613 C192.570325,125.631389 192.343295,122.911347 193.325334,120.122348 C196.783591,110.290306 205.126701,109.766242 205.20801,109.765181 C205.650455,109.765181 206.520563,109.921127 206.818343,109.979475 C207.291411,110.081317 207.749696,109.767303 207.843677,109.29416 C207.938713,108.819956 207.632485,108.358482 207.161529,108.264066 C207.034814,108.238605 205.900717,108.014764 205.20801,108.014764 C205.133037,108.014764 199.22285,108.323474 194.810009,113.802811 C194.803673,113.809176 194.794169,113.811298 194.787833,113.817663 C194.721308,113.885558 188.10363,120.607161 180.088922,126.275331 C172.693005,131.506427 167.819767,133.840317 164.289705,133.840317 C163.827196,133.840317 163.503017,133.693918 163.240084,133.363991 C161.226376,130.852938 163.576934,120.026871 164.348838,116.46875 C164.923279,113.821906 165.784939,110.706163 166.782818,107.446143 C169.167167,107.277467 176.257913,106.702481 176.257913,106.702481 L176.117471,104.958429 C176.117471,104.958429 170.166101,105.440059 167.341418,105.650109 C168.782799,101.084171 170.433258,96.3495573 171.908429,92.2811627 C173.562057,88.553304 175.013997,84.7872543 176.068897,81.2365589 C176.13859,81.0010482 176.106911,80.7485638 175.982308,80.5374528 C175.857706,80.3274027 175.650738,80.1788824 175.412092,80.1290221 C175.063627,80.0558228 174.845044,80.0102059 174.432165,80.7453812 L174.39943,80.7358335 C174.383591,80.7888764 174.367751,80.8419194 174.351912,80.8949623 C173.727842,82.0873679 172.672942,84.9612351 170.264305,91.6945077 C168.037294,96.7070668 165.442809,101.643244 162.970816,105.890924 C160.476647,106.005497 157.595998,106.125374 157.39959,106.125374 C156.91913,106.128556 156.529482,106.521074 156.530538,107.003765 C156.531594,107.486456 156.920186,107.876852 157.400646,107.876852 C157.606558,107.876852 159.735366,107.788801 161.907468,107.691202 C160.175699,110.570373 158.542135,113.052783 157.186287,114.901861 C151.040622,123.28583 141.820012,133.077559 136.05977,133.077559 C135.281531,133.077559 134.745105,132.825075 134.37024,132.282976 C132.573003,129.687054 134.831693,121.9396 135.852803,119.172879 C135.996413,118.784605 135.849635,118.349653 135.50117,118.128994 C135.154816,117.908335 134.699699,117.962439 134.411423,118.25948 C123.181328,129.888617 113.85829,136.293023 108.159294,136.293023 C106.934385,136.293023 105.970297,135.693638 105.215288,134.458798 C104.474007,133.247297 103.989323,131.552044 103.742229,129.492916 C103.795027,129.434569 103.846769,129.377283 103.898511,129.322118 C104.276543,128.907322 104.612337,128.540265 104.896389,128.240042 C110.662967,122.148589 125.991228,97.7297349 130.919375,84.4308056 C135.147424,73.0212663 136.21922,67.4252347 134.620502,65.1125619 C134.238246,64.5598543 133.490629,63.9 132.105214,63.9 C127.012337,63.9 119.684001,72.8875981 111.468661,89.2089149 C107.544728,97.0030465 104.647184,105.887741 103.101264,113.909957 C99.9492344,114.467969 94.4909965,117.003423 89.8331735,122.551715 C85.7941408,127.364833 83.8691326,133.812735 85.4498991,137.230822 C86.127823,138.694808 87.4171456,139.5 89.0813326,139.5 C93.7623867,139.5 98.8373125,134.72083 102.252275,131.100118 C102.564838,132.81977 103.053746,134.268904 103.730614,135.37538 C104.799241,137.120493 106.330378,138.04344 108.159294,138.04344 C115.278551,138.04344 125.228827,129.870582 133.109429,122.064781 C132.148508,125.577286 131.188644,130.752156 132.93942,133.282305 C133.639519,134.293304 134.718706,134.827977 136.05977,134.827977 C144.326852,134.827977 156.278165,119.093315 158.589653,115.939381 C160.123957,113.846306 162.008839,110.956526 163.992981,107.595724 C164.326663,107.579811 164.640282,107.564959 164.933838,107.550107 C164.007765,110.609625 163.195734,113.5673 162.646637,116.096388 C160.333037,126.752717 160.10495,132.244785 161.883181,134.46198 C162.474516,135.200338 163.30661,135.590734 164.289705,135.590734 C168.253765,135.590734 173.27906,133.232445 181.093137,127.70643 C185.327521,124.711625 189.16909,121.432509 191.900849,118.959647 C191.826932,119.151662 191.751959,119.339434 191.68121,119.537815 C190.510155,122.871034 190.817438,126.172427 192.524919,128.598612 C193.905054,130.55908 196.043365,131.68253 198.393924,131.68253 C203.717,131.68253 207.802494,127.754168 209.426555,121.130164 C216.321949,120.983766 222.475006,117.998508 224.230006,117.067074 L224.895258,116.713808 C227.550988,115.30817 229.841357,114.094547 231.8878,112.497954 C232.22465,112.602979 232.583676,112.710126 232.968044,112.818333 C233.711437,113.029444 234.446382,113.206608 235.143314,113.375285 C236.992293,113.821906 238.737789,114.244128 239.110541,114.99946 C239.267879,115.316657 239.204521,115.80253 238.923637,116.44435 C238.365036,117.721624 237.634314,119.267296 236.926824,120.763107 C235.637501,123.488454 234.419984,126.062098 234.081022,127.325581 C233.421049,129.792079 232.811762,132.81871 233.972258,134.339981 C234.41576,134.921332 235.065173,135.227921 235.853972,135.227921 C237.405172,135.227921 240.88138,133.91776 253.096682,122.584602 C259.587645,116.561044 266.376388,109.711077 266.443969,109.643182 C266.783987,109.300525 266.782931,108.745696 266.440801,108.40516 L266.440801,108.40516 Z" id="Fill-11" fill="#FFFFFF"></path>
                    <g id="Group-15" transform="translate(265.798193, 86.400000)">
                        <mask id="mask-4" fill="white">
                            <use xlink:href="#path-3"></use>
                        </mask>
                        <g id="Clip-13"></g>
                        <path d="M6.32783077,14.39541 C6.5136,14.39541 6.70255385,14.338062 6.86284615,14.218056 C8.07618462,13.305798 10.9667538,10.84833 11.5697077,7.755786 C11.9964462,5.571252 12.0643846,2.76651 10.9784308,1.445382 C10.5750462,0.9558 10.0474615,0.696672 9.45087692,0.696672 C8.57086154,0.696672 7.81716923,1.140588 7.383,1.913724 C6.88089231,2.806866 6.89044615,4.023918 7.40635385,4.873518 C7.65793846,5.286636 8.19613846,5.417262 8.61013846,5.16663 C9.02413846,4.915998 9.15470769,4.376502 8.90312308,3.963384 C8.71416923,3.651156 8.71629231,3.11697 8.90843077,2.772882 C9.07084615,2.486142 9.28315385,2.450034 9.45087692,2.450034 C9.48378462,2.450034 9.53473846,2.450034 9.62496923,2.55942 C10.0962923,3.131838 10.3255846,4.98609 9.85107692,7.419132 C9.35003077,9.984924 6.63143077,12.200256 5.8098,12.817278 L5.79281538,12.830022 C5.40535385,13.12101 5.33741538,13.663692 5.62721538,14.05026 C5.79918462,14.27859 6.06138462,14.39541 6.32783077,14.39541" id="Fill-12" fill="#FFFFFF" mask="url(#mask-4)"></path>
                        <path d="M20.0046923,44.982072 C18.1438154,49.507254 13.9602923,50.432256 12.9422769,50.432256 C12.2427231,50.432256 11.2905231,50.173128 10.7183538,49.444596 C10.0856769,48.6396 9.96890769,47.38644 10.3733538,45.716976 C11.2852154,41.957496 16.9156154,37.230534 20.0991692,35.031132 L20.4823846,34.768818 C21.0110308,37.133892 21.4759846,41.403132 20.0046923,44.982072 Z M18.0992308,15.328908 C18.4028308,11.568366 19.5588462,10.229184 20.5651846,10.229184 C20.5694308,10.229184 20.5726154,10.229184 20.5768615,10.229184 C20.8486154,10.229184 21.0726,10.247238 21.2541231,10.454328 C21.4505077,10.680534 21.8719385,11.461104 21.5428615,13.842108 C21.2371385,16.05213 20.1533077,18.732618 18.6788308,21.47364 C18.2351077,19.177596 17.9665385,16.968636 18.0992308,15.328908 Z M40.2004615,18.320562 C39.8225538,18.018954 39.2716154,18.081612 38.9690769,18.45756 C38.5327846,19.003428 36.6963231,20.70369 30.4300615,25.697214 L29.9215846,26.102898 C29.3918769,26.531946 24.3262154,30.008934 21.4738615,31.963014 C20.9993538,30.502764 20.0248615,27.380484 19.2393231,24.05961 C21.2796,20.594304 22.8697846,17.031294 23.2774154,14.08212 C23.5969385,11.775456 23.3665846,10.212192 22.5736154,9.302058 C21.8496462,8.472636 20.8730308,8.48007 20.5375846,8.475822 C19.4420769,8.475822 16.8423692,9.130014 16.353,15.187662 C16.1682923,17.474148 16.6746462,20.67714 17.3699538,23.761188 C14.9156769,27.814842 11.8414615,31.749552 9.40098462,34.236756 C5.46055385,38.254302 0.708046154,41.956434 0.660276923,41.994666 C0.277061538,42.290964 0.209123077,42.84108 0.505292308,43.2234 C0.801461538,43.606782 1.3524,43.675812 1.73455385,43.37739 C1.78232308,43.34022 6.62612308,39.567996 10.6514769,35.464428 C12.8095846,33.265026 15.5579077,29.851758 17.9484923,26.149626 C18.7595077,29.296332 19.6352769,31.99806 19.9686,32.99634 L19.1045077,33.589998 C17.5812,34.64244 9.91901538,40.153158 8.67170769,45.30492 C8.13456923,47.522376 8.35961538,49.278924 9.3426,50.528898 C10.5495692,52.065612 12.4030154,52.184556 12.9422769,52.184556 C14.4974308,52.184556 19.4304,50.983434 21.6246,45.647946 C23.5396154,40.9932 22.5385846,35.764974 22.0141846,33.717438 C26.2677692,30.802248 30.4576615,27.924228 31.0234615,27.464382 L31.5202615,27.067194 C34.8418154,24.421752 39.3692769,20.763162 40.3374,19.552482 C40.6388769,19.173348 40.5773077,18.623232 40.2004615,18.320562 L40.2004615,18.320562 Z" id="Fill-14" fill="#FFFFFF" mask="url(#mask-4)"></path>
                    </g>
                    <path d="M137.602675,112.424352 C137.716356,112.475129 137.834171,112.5 137.950953,112.5 C138.276496,112.5 138.587569,112.311397 138.729155,111.99326 C138.754991,111.937301 139.35957,110.589102 140.020989,109.528988 C140.618334,108.575612 141.400669,107.602546 141.408937,107.592183 C141.704509,107.226377 141.647668,106.687512 141.28182,106.390099 C140.915973,106.093724 140.377536,106.149683 140.082997,106.517562 C140.04786,106.560049 139.229353,107.577675 138.576201,108.620172 C137.864142,109.760079 137.241994,111.141438 137.172752,111.295844 C136.980527,111.7259 137.172752,112.231604 137.602675,112.424352" id="Fill-16" fill="#FFFFFF"></path>
                </g>
            </g>
        </g>
    </g>
</svg>