<?xml version="1.0" encoding="UTF-8"?>
<svg width="24px" height="20px" viewBox="0 0 24 20" version="1.1" xmlns="http://www.w3.org/2000/svg" xmlns:xlink="http://www.w3.org/1999/xlink">
    <!-- Generator: Sketch 59.1 (86144) - https://sketch.com -->
    <title>email icon copy</title>
    <desc>Created with Sketch.</desc>
    <defs>
        <path d="M21.6,0 L2.4,0 C1.08,0 0.012,1.08 0.012,2.4 L0,16.8 C0,18.12 1.08,19.2 2.4,19.2 L21.6,19.2 C22.92,19.2 24,18.12 24,16.8 L24,2.4 C24,1.08 22.92,0 21.6,0 L21.6,0 Z M21.6,16.8 L2.4,16.8 L2.4,4.8 L12,10.8 L21.6,4.8 L21.6,16.8 L21.6,16.8 Z M12,8.4 L2.4,2.4 L21.6,2.4 L12,8.4 L12,8.4 Z" id="path-1"></path>
        <rect id="path-3" x="0" y="0" width="60" height="60"></rect>
    </defs>
    <g id="GQ-Editor's-Club-Home" stroke="none" stroke-width="1" fill="none" fill-rule="evenodd">
        <g id="GQ-Editors-Home" transform="translate(-1084.000000, -2335.000000)">
            <g id="email-icon-copy" transform="translate(1084.000000, 2335.000000)">
                <mask id="mask-2" fill="white">
                    <use xlink:href="#path-1"></use>
                </mask>
                <use id="Mask" fill="#000000" xlink:href="#path-1"></use>
                <g id="🎨-Color" mask="url(#mask-2)">
                    <g transform="translate(-19.000000, -21.400000)">
                        <mask id="mask-4" fill="white">
                            <use xlink:href="#path-3"></use>
                        </mask>
                        <use id="Black" stroke="none" fill="#000000" fill-rule="evenodd" xlink:href="#path-3"></use>
                    </g>
                </g>
            </g>
        </g>
    </g>
</svg>