<?xml version="1.0" encoding="UTF-8"?>
<svg width="211px" height="101px" viewBox="0 0 211 101" version="1.1" xmlns="http://www.w3.org/2000/svg" xmlns:xlink="http://www.w3.org/1999/xlink">
    <!-- Generator: Sketch 59.1 (86144) - https://sketch.com -->
    <title>GQ LOGO</title>
    <desc>Created with Sketch.</desc>
    <g id="GQ-Editor's-Club-Home" stroke="none" stroke-width="1" fill="none" fill-rule="evenodd">
        <g id="GQ-Editor's-Club-1440px" fill="#FFFFFF">
            <g id="HEADER+NAV" transform="translate(-5.000000, -14.000000)">
                <path d="M216,111.870958 L203.122149,95.4431642 C210.146664,86.6423315 214.243871,75.1037471 214.243871,62 C214.243871,31.0995837 189.267675,9.19628679 160.195552,9.19628679 C133.85362,9.19628679 111.023946,26.992956 106.926739,53.590458 L57.7551332,53.590458 L57.7551332,78.6240802 L72.1945565,78.6240802 C70.2438712,81.5568358 63.6097492,85.8597502 54.0483191,85.8597502 C40.1951254,85.8597502 30.0487458,75.298751 30.0487458,62 C30.0487458,48.701249 39.9992889,37.9452459 54.0483191,37.9452459 C63.2193561,37.9452459 67.7069563,41.2692922 71.6096069,46.354788 L106.536346,46.354788 C103.414482,34.6199167 88.5846652,9 54.0483191,9 C24.974916,9 0,30.9045798 0,62 C0,93.0967031 23.2187872,114.804996 54.0483191,114.804996 C75.5122576,114.804996 102.048746,100.527377 107.121296,71.9747047 C111.608896,97.5946214 132.878278,115 160.195552,115 C168.974916,115 177.17061,113.239833 184.389682,109.915787 L186.73204,112.848543 L216,111.870958 Z M184,61.9016841 C184,64.6442475 183.616178,67.3880961 182.848533,69.9340277 L179.011567,65.0362259 L150.236211,66.0168144 L165.391534,85.6080216 C163.856244,86 162.130931,86 160.404359,86 C146.783067,86 137,75.2238079 137,61.9016841 C137,48.5795604 146.591785,38 160.404359,38 C174.215674,38 184,48.5795604 184,61.9016841 L184,61.9016841 Z" id="GQ-LOGO"></path>
            </g>
        </g>
    </g>
</svg>