<?xml version="1.0" encoding="UTF-8"?>
<svg width="125px" height="59px" viewBox="0 0 125 59" version="1.1" xmlns="http://www.w3.org/2000/svg" xmlns:xlink="http://www.w3.org/1999/xlink">
    <!-- Generator: Sketch 59.1 (86144) - https://sketch.com -->
    <title>Shape</title>
    <desc>Created with Sketch.</desc>
    <g id="GQ-Editor's-Club-Home" stroke="none" stroke-width="1" fill="none" fill-rule="evenodd">
        <g id="GQ-Editor's-Club-768px-IPAD" fill="#FFFFFF" fill-rule="nonzero">
            <path d="M104.701081,30.3417193 L85.4963576,30.9839461 L93.064018,41.7590841 C84.7824274,43.4003303 76.929195,36.4071944 77.000588,28.3436805 C77.143374,20.066091 83.7829251,13.9292574 91.7789436,14.0006159 C102.059539,14.0006159 109.270234,23.4913004 106.34312,32.4824752 L104.701081,30.3417193 L104.701081,30.3417193 Z M59.9810652,31.5227273 C61.8789152,45.5431818 73.9689225,58.8590909 91.1198632,58.8590909 C98.5706816,58.8590909 103.842487,55.6886364 104.756267,55.1954545 L106.724408,57.8022727 L125,56.8159091 L117.338309,45.9659091 C117.338309,45.9659091 123.10215,38.4977273 123.10215,28.7045455 C123.172441,9.54090909 109.746909,-2.92954545 91.0495724,-3 C74.2500855,-3 61.38688,9.75227273 59.8404837,24.6886364 L59.6296115,23.1386364 L30.529245,23.1386364 L30.529245,37.7227273 L38.4018079,37.7227273 C38.4018079,38.075 34.3952357,42.0204545 28.2799413,42.0204545 C21.602321,42.0204545 14.0812118,36.7363636 13.9406303,28.2818182 C13.8000488,19.5454545 21.3914488,13.7681818 28.3502321,14.05 C33.9734913,14.2613636 36.1525042,15.8818182 39.3155876,18.9818182 L58.153506,18.9818182 C56.5368189,12.7818182 47.8910579,-2.85909091 28.1393598,-2.92954545 C10.0043488,-2.92954545 -3.06972885,12.0772727 -2.99972018,27.6477273 C-2.92914737,45.7545455 11.0587099,59 28.7719765,59 C47.9613486,59 58.6455411,43.2181818 59.9810652,31.5227273 Z" id="Shape"></path>
        </g>
    </g>
</svg>