<?xml version="1.0" encoding="UTF-8"?>
<svg width="223px" height="126px" viewBox="0 0 223 126" version="1.1" xmlns="http://www.w3.org/2000/svg" xmlns:xlink="http://www.w3.org/1999/xlink">
    <!-- Generator: Sketch 59.1 (86144) - https://sketch.com -->
    <title>Logo white</title>
    <desc>Created with Sketch.</desc>
    <defs>
        <polygon id="path-1" points="0.0461648534 0.616021545 210.168573 0.616021545 210.168573 90.5515438 0.0461648534 90.5515438"></polygon>
        <polygon id="path-3" points="0.233650715 0.502212822 29.483068 0.502212822 29.483068 37.6184964 0.233650715 37.6184964"></polygon>
    </defs>
    <g id="GQ-Editor's-Club-Home" stroke="none" stroke-width="1" fill="none" fill-rule="evenodd">
        <g id="GQ-Editors-Home" transform="translate(-222.000000, -637.000000)">
            <g id="Hero-image,-Logo-and-button" transform="translate(181.000000, 458.000000)">
                <g id="Logo-white" transform="translate(40.493827, 179.629630)">
                    <g id="Group" transform="translate(82.056792, 0.000000)" fill="#9E885D">
                        <path d="M130.098646,61.4247033 L122.342206,51.6155953 C126.573131,46.3605792 129.040914,39.4708394 129.040914,31.6465342 C129.040914,13.195759 113.997538,0.117203711 96.4871498,0.117203711 C80.6211792,0.117203711 66.8706714,10.7436735 64.4028886,26.6251595 L34.7864102,26.6251595 L34.7864102,41.5728459 L43.4833983,41.5728459 C42.3084838,43.3240072 38.3126954,45.8932964 32.5537644,45.8932964 C24.2098675,45.8932964 18.0986163,39.5872771 18.0986163,31.6465342 C18.0986163,23.7057912 24.0919135,17.2833342 32.5537644,17.2833342 C38.0775583,17.2833342 40.7804783,19.2681369 43.1310781,22.3047089 L64.1677515,22.3047089 C62.2874258,15.2977655 53.3553007,0 32.5537644,0 C15.0426053,0 0,13.0793214 0,31.6465342 C0,50.214513 13.9848739,63.1766306 32.5537644,63.1766306 C45.4816779,63.1766306 61.4648315,54.6514012 64.5200716,37.6024744 C67.2229916,52.9002399 80.033722,63.2930683 96.4871498,63.2930683 C101.775036,63.2930683 106.711372,62.2420651 111.059481,60.2572624 L112.470303,62.0084237 L130.098646,61.4247033 Z M110.942298,31.6465342 C110.942298,33.2812578 110.707161,34.9167475 110.236887,36.4342675 L107.886287,33.5148992 L90.2579446,34.0993857 L99.5423899,45.7768587 C98.6018416,46.0105001 97.5448811,46.0105001 96.4871498,46.0105001 C88.1424819,46.0105001 82.1491847,39.5872771 82.1491847,31.6465342 C82.1491847,23.7057912 88.0252988,17.3997719 96.4871498,17.3997719 C104.94823,17.3997719 110.942298,23.7057912 110.942298,31.6465342 L110.942298,31.6465342 Z" id="Fill-1"></path>
                    </g>
                    <path d="M198.877958,72.5804866 C201.384739,70.8779494 203.147552,67.3930927 202.31744,64.3939007 C202.087985,63.3396909 201.101248,62.490746 199.914032,63.1839993 C199.022836,63.7045203 198.801995,64.9423066 199.327471,65.8230095 C199.831803,66.4000751 200.712035,65.7277356 200.361196,65.1406003 C200.185776,64.8470327 200.286016,64.0755463 200.747276,64.0437884 C201.362028,64.0011862 201.448172,65.2180588 201.4701,65.5224706 C201.642387,67.9562158 200.111379,70.3551047 198.198206,71.7098534 C197.604598,72.0568674 198.130857,72.9375702 198.877958,72.5804866" id="Fill-3" fill="#FFFFFF"></path>
                    <path d="M82.0567918,118.118016 L82.0567918,118.078806 C82.0567918,114.079354 85.1062089,110.942529 89.249267,110.942529 C92.0438769,110.942529 93.8418078,112.118838 95.0534569,113.784522 L92.2002187,116.000659 C91.4185097,115.040006 90.5195442,114.393036 89.2101815,114.393036 C87.2949943,114.393036 85.9465461,116.039869 85.9465461,118.039595 L85.9465461,118.078806 C85.9465461,120.137347 87.2949943,121.74497 89.2101815,121.74497 C90.6368006,121.74497 91.4771378,121.078395 92.2979324,120.078532 L95.1511705,122.117468 C93.8613505,123.901537 92.1220478,125.215837 89.1124679,125.215837 C85.2031708,125.215837 82.0567918,122.215494 82.0567918,118.118016" id="Fill-4" fill="#FFFFFF"></path>
                    <polyline id="Fill-5" fill="#FFFFFF" points="121.994647 110.942529 125.807219 110.942529 125.807219 121.258419 132.47015 121.258419 132.47015 124.56705 121.994647 124.56705 121.994647 110.942529"></polyline>
                    <path d="M158.004188,118.810209 L158.004188,110.942529 L161.946582,110.942529 L161.946582,118.730139 C161.946582,120.751915 162.972409,121.712759 164.542094,121.712759 C166.13112,121.712759 167.156173,120.79195 167.156173,118.830227 L167.156173,110.942529 L171.098567,110.942529 L171.098567,118.710122 C171.098567,123.214848 168.503828,125.215837 164.501092,125.215837 C160.51847,125.215837 158.004188,123.19406 158.004188,118.810209" id="Fill-6" fill="#FFFFFF"></path>
                    <g id="Group-10" transform="translate(0.216925, 34.385696)">
                        <mask id="mask-2" fill="white">
                            <use xlink:href="#path-1"></use>
                        </mask>
                        <g id="Clip-8"></g>
                        <path d="M204.386425,84.8956502 L201.426488,84.8956502 L201.426488,87.4556863 L204.427204,87.4556863 C205.62749,87.4556863 206.287647,86.9992457 206.287647,86.1855909 L206.287647,86.1459004 C206.287647,85.3925445 205.687504,84.8956502 204.386425,84.8956502 Z M205.727514,80.9464473 C205.727514,80.1724829 205.107366,79.7557329 203.966325,79.7557329 L201.426488,79.7557329 L201.426488,82.1966975 L203.86707,82.1966975 C205.047352,82.1966975 205.727514,81.7997927 205.727514,80.9861378 L205.727514,80.9464473 Z M197.645587,76.659112 L204.827299,76.659112 C206.587719,76.659112 207.828015,77.0964706 208.64821,77.8902802 C209.208344,78.4650289 209.548425,79.1993028 209.548425,80.1518744 L209.548425,80.1923281 C209.548425,81.7997927 208.628205,82.7523642 207.38791,83.2881857 C209.088315,83.8438525 210.168573,84.796424 210.168573,86.6817219 L210.168573,86.7214124 C210.168573,89.1028413 208.208105,90.5515438 204.867309,90.5515438 L197.645587,90.5515438 L197.645587,76.659112 L197.645587,76.659112 Z" id="Fill-7" fill="#FFFFFF" mask="url(#mask-2)"></path>
                        <path d="M63.7143698,76.1965652 C63.6558943,76.2438885 57.8198874,81.0181955 51.6276418,83.7690512 C49.9264669,84.7055939 35.4791761,91.0667568 28.6637049,88.8219548 C27.2472133,88.3555916 26.3039115,87.5663617 25.7784015,86.4092315 C24.0287536,82.551622 29.1461276,72.8060822 40.4665191,63.7887101 C40.6934963,63.6078131 40.76736,63.2971587 40.6457926,63.0353542 C40.5249945,62.7727864 40.2356948,62.6277635 39.9533198,62.6781399 C38.8638292,62.8788821 37.085713,63.37196 34.8336375,63.9963218 C25.7960981,66.5036917 6.9931533,71.7199369 2.73829265,64.9420239 C-0.98413336,59.01135 7.27245066,39.9270979 31.9406401,20.9329126 C45.9362848,10.1554203 56.2071952,5.55819397 62.3586619,3.59885809 C69.3310936,1.37771768 74.9947517,1.30138983 77.5076586,3.39735257 C82.0902897,7.21756142 79.1349697,17.4225948 69.978171,29.3961445 C61.7492859,40.157608 54.930737,45.3791962 54.8622592,45.4303358 C54.5837312,45.641764 54.5306416,46.0363789 54.7437694,46.3126857 C54.9568971,46.5889926 55.3546843,46.6408955 55.6332122,46.4317572 C55.7024595,46.3783277 62.6464229,41.067436 70.9891813,30.1571332 C82.6411903,14.9213312 82.4180601,5.84594997 78.3247765,2.43256855 C75.4325484,0.0221350763 69.4718964,0.00992262039 61.9701078,2.39974758 C53.0095097,5.25364586 42.3562004,11.3186568 31.1619929,19.9375975 C5.57512289,39.6401052 -2.41139674,59.1204988 1.66111274,65.608366 C6.41840088,73.1861949 25.1259383,67.998191 35.1752575,65.2099346 C36.0554673,64.9656855 36.8625828,64.7420449 37.5796769,64.5489355 C29.115351,71.9145729 22.2806445,81.7684982 24.6204331,86.925971 C25.2905929,88.4021516 26.5162698,89.4417369 28.2636095,90.0172489 C29.3969566,90.3897288 30.7057302,90.549254 32.1176053,90.549254 C39.8640677,90.549254 50.6758764,85.73373 52.1954695,84.8933604 C58.5000496,82.0959447 64.2821975,77.3659079 64.5253324,77.1651657 C64.7953968,76.9430516 64.8323287,76.5469101 64.6084291,76.2789993 C64.3845296,76.0110886 63.9852036,75.9744512 63.7143698,76.1965652" id="Fill-9" fill="#FFFFFF" mask="url(#mask-2)"></path>
                    </g>
                    <path d="M168.429961,79.6828498 C166.743824,79.092466 166.542563,78.6657378 166.37971,78.0455289 C166.242976,77.5262664 167.106401,76.5083897 168.344694,75.7298784 C169.002249,75.3169156 170.623859,74.8917169 171.448875,74.8917169 C171.671645,74.8917169 171.835266,74.9223068 171.908242,74.9918986 C171.90901,74.9941929 171.955869,75.1823204 171.650905,75.7138187 C170.653818,77.4497918 169.609872,78.6795032 168.429961,79.6828498 Z M151.313558,86.0463001 C148.579635,85.9162933 146.733718,84.9817738 146.084613,84.0549018 C145.852625,83.7245316 145.788099,83.4148096 145.891802,83.1349126 C146.341183,81.9204961 147.24148,81.6719537 148.453655,81.6719537 C148.8508,81.6719537 149.767228,82.0749748 150.470874,82.9399024 C150.969417,83.5539933 151.491006,84.57187 151.313558,86.0463001 Z M120.06126,76.263671 C120.300161,75.8491788 120.539831,75.4285685 120.780268,74.9995461 C120.64507,75.4155679 120.512176,75.8315896 120.381587,76.2468466 C120.280189,76.2521998 120.174949,76.257553 120.06126,76.263671 Z M75.3905374,91.5754126 C75.3736376,91.5930018 75.3567379,91.6105909 75.3390699,91.6289448 C75.2568755,89.2429378 75.5157494,86.3797293 76.0711376,83.2939797 C77.1365918,83.3536299 77.8540641,83.9868395 78.1759281,84.2713249 L78.2727177,84.355447 C78.537737,84.581047 78.9387226,84.5489277 79.1653333,84.2827961 C79.3927121,84.018194 79.3596807,83.6197614 79.0931251,83.3933967 L79.016308,83.3268638 C78.640672,82.9949641 77.7173296,82.179745 76.3092708,82.0466792 C77.4407878,76.4449158 79.4956471,70.2420621 82.2211204,64.8773699 C88.7943659,51.9363404 93.7014469,47.3256876 96.1019835,47.3256876 C96.5951498,47.3256876 96.7825837,47.5038734 96.8908959,47.6583521 C98.1506975,49.4631523 95.0649517,57.7124659 94.0517332,60.4242547 C90.2907644,70.4814276 79.0869798,87.7057986 75.3905374,91.5754126 Z M74.1699125,92.8884813 C71.9598825,95.2660762 68.007639,99.3001106 64.8035947,99.3001106 C64.0845859,99.3001106 63.5960287,99.0033892 63.3118052,98.3938867 C62.4852524,96.6242648 63.4969346,92.4908134 66.3199657,89.158051 C69.4756151,85.4329739 72.9139518,83.9348367 74.7552594,83.4683418 C74.1514764,87.0060561 73.9379247,90.2600498 74.1699125,92.8884813 Z M193.826486,78.1464753 C193.578367,77.9009919 193.177381,77.9009919 192.93003,78.1487696 C192.881635,78.1977133 187.960727,83.1173234 183.258748,87.4404318 C174.950202,95.0794782 172.372986,96.220479 171.575624,96.220479 C171.355159,96.220479 171.271428,96.1508871 171.213047,96.0751773 C170.999495,95.7968098 170.752912,94.9135283 171.510329,92.1145585 C171.726954,91.3138696 172.628787,89.4241825 173.500662,87.5964399 C174.019178,86.5097361 174.555362,85.3870891 174.969406,84.448746 C175.336593,83.6159377 175.372697,82.926137 175.080023,82.3388121 C174.545376,81.2666384 173.066645,80.9125611 171.35439,80.5026573 C170.868906,80.3864159 170.356535,80.2632919 169.836483,80.1179901 C170.87966,79.1307032 171.839107,77.9285227 172.751695,76.3401456 C173.452267,75.1188465 173.16113,74.4451054 172.793944,74.0956165 C171.636309,72.992853 168.374652,74.2179758 167.668702,74.6630579 C166.966593,75.1043163 164.709705,76.6766338 165.153708,78.3651926 C165.424105,79.3937758 165.954143,80.0155142 167.257731,80.5814261 C166.02251,81.4410005 164.633656,82.1690385 163.012814,83.0202007 L162.526561,83.2748611 C161.335895,83.9004232 157.218494,85.8834092 152.588723,86.0508885 C152.770012,84.2239107 152.097093,82.9360786 151.45567,82.1460962 C150.529255,81.0066248 149.244104,80.4101231 148.453655,80.4101231 C147.659365,80.4101231 145.550734,80.4101231 144.701904,82.6990074 C144.454553,83.3689248 144.575924,84.1069046 145.044509,84.7768219 C146.020087,86.1694241 148.319225,87.1184738 151.047003,87.2943653 C150.402507,89.6689012 148.671816,93.6646983 144.324732,93.6646983 C143.031899,93.6646983 141.852755,93.0483132 141.089961,91.97461 C140.088265,90.5644186 139.923108,88.6036102 140.637508,86.5930934 C143.15327,79.5054287 149.222595,79.1276443 149.281744,79.1268795 C149.603608,79.1268795 150.236581,79.2392972 150.453206,79.2813582 C150.797347,79.3547738 151.130733,79.128409 151.199101,78.7873324 C151.268236,78.445491 151.045466,78.1128265 150.702862,78.0447641 C150.610681,78.0264102 149.785665,77.8650488 149.281744,77.8650488 C149.227204,77.8650488 144.927747,78.0875899 141.717557,82.0375023 C141.712948,82.0420907 141.706034,82.0436202 141.701425,82.0482087 C141.653031,82.0971524 136.838898,86.9425822 131.008475,91.0286193 C125.6282,94.7995812 122.083088,96.4820221 119.51509,96.4820221 C119.17863,96.4820221 118.942802,96.3764872 118.751527,96.1386512 C117.286623,94.3284977 118.996574,86.5242662 119.558107,83.9593086 C119.975993,82.0512677 120.602821,79.8052091 121.328743,77.4551451 C123.063275,77.3335505 128.221548,76.9190582 128.221548,76.9190582 L128.119381,75.661816 C128.119381,75.661816 123.789965,76.0090106 121.735106,76.1604303 C122.78366,72.8689641 123.984313,69.4559034 125.057449,66.523103 C126.260405,63.835786 127.316642,61.1209382 128.084045,58.5613338 C128.134744,58.3915602 128.111699,58.2095507 128.021055,58.0573663 C127.930411,57.9059466 127.779849,57.7988822 127.606242,57.7629391 C127.352746,57.7101717 127.193734,57.6772876 126.893379,58.2072565 L126.869566,58.2003738 C126.858043,58.2386111 126.846521,58.2768484 126.834998,58.3150857 C126.381008,59.17466 125.613605,61.2463565 123.861405,66.1001985 C122.241331,69.7136227 120.353933,73.2719852 118.555643,76.3340276 C116.741221,76.4166202 114.645649,76.5030365 114.502769,76.5030365 C114.153251,76.5053307 113.869796,76.7882867 113.870564,77.136246 C113.871332,77.4842054 114.154019,77.7656319 114.503537,77.7656319 C114.653331,77.7656319 116.201965,77.702158 117.782094,77.6318014 C116.522293,79.7073216 115.333931,81.4968269 114.347598,82.829779 C109.876839,88.8735655 103.169163,95.9321698 98.9787866,95.9321698 C98.4126441,95.9321698 98.0224128,95.7501603 97.7497119,95.3593752 C96.4422836,93.488042 98.0854029,87.903103 98.828225,85.9086458 C98.9326963,85.6287488 98.8259204,85.315203 98.5724238,85.1561359 C98.3204635,84.9970687 97.9893814,85.0360708 97.7796706,85.2501996 C89.6101642,93.6333438 82.8279761,98.2501145 78.6821533,98.2501145 C77.7910741,98.2501145 77.0897333,97.8180331 76.5404905,96.9278689 C76.0012339,96.0545291 75.6486431,94.8324653 75.4688909,93.3480935 C75.5072995,93.3060325 75.5449399,93.2647362 75.5825803,93.2249695 C75.8575858,92.9259538 76.1018644,92.6613518 76.3085026,92.4449287 C80.5034884,88.0537579 91.6542692,70.4508377 95.2393267,60.8639836 C98.3150862,52.6391419 99.0947806,48.6051075 97.9317686,46.9379615 C97.6536904,46.5395289 97.1098248,46.063857 96.1019835,46.063857 C92.3970913,46.063857 87.0659795,52.5427839 81.0896035,64.308399 C78.2350773,69.9269868 76.1272141,76.3317334 75.0026107,82.1147416 C72.7096181,82.5169979 68.7389384,84.3447405 65.350533,88.3443614 C62.4122761,91.8140133 61.011899,96.4621387 62.1618521,98.9261499 C62.6550184,99.9814991 63.592956,100.561941 64.8035947,100.561941 C68.2088999,100.561941 71.9007333,97.1167611 74.3850006,94.5066835 C74.6123795,95.7463366 74.968043,96.7909794 75.460441,97.5886093 C76.2378308,98.8466163 77.3516798,99.5119452 78.6821533,99.5119452 C83.861167,99.5119452 91.0996492,93.6203431 96.8325148,87.993343 C96.1334785,90.5254166 95.4352104,94.2558469 96.7088392,96.0797658 C97.218137,96.8085686 98.0032085,97.1940005 98.9787866,97.1940005 C104.992803,97.1940005 113.686971,85.8512899 115.368499,83.5777004 C116.484652,82.0688568 117.855839,79.9856891 119.299233,77.5629742 C119.541976,77.551503 119.770123,77.5407966 119.983674,77.5300902 C119.309988,79.7356172 118.719264,81.8677287 118.319814,83.6908828 C116.63675,91.372755 116.470825,95.3318443 117.764426,96.9301632 C118.194602,97.4624263 118.799922,97.7438528 119.51509,97.7438528 C122.398806,97.7438528 126.054535,96.0438227 131.739006,92.0602615 C134.819375,89.9013839 137.613984,87.5375545 139.601244,85.7549319 C139.547472,85.8933509 139.492932,86.0287109 139.441464,86.1717184 C138.589562,88.5745499 138.8131,90.954439 140.055233,92.7034128 C141.059234,94.1166631 142.614782,94.926529 144.324732,94.926529 C148.197085,94.926529 151.169142,92.0946751 152.35059,87.3196019 C157.366751,87.214067 161.842888,85.0620721 163.119589,84.3906253 L163.603538,84.1359649 C165.53549,83.1226766 167.201654,82.2478074 168.690371,81.0968649 C168.935418,81.1725747 169.196596,81.249814 169.47621,81.3278181 C170.017003,81.4800025 170.551651,81.6077151 171.058644,81.7293097 C172.403713,82.0512677 173.673501,82.3556365 173.944665,82.9001356 C174.059123,83.1287946 174.013033,83.4790482 173.808699,83.9417195 C173.402336,84.8624735 172.870761,85.9767082 172.356086,87.0549999 C171.418149,89.019632 170.532447,90.8749054 170.285863,91.7857178 C169.805756,93.5637519 169.362521,95.7455718 170.206742,96.8422174 C170.529374,97.2612981 171.0018,97.4823097 171.575624,97.4823097 C172.704068,97.4823097 175.232889,96.5378485 184.1191,88.3680685 C188.841052,84.0258415 193.779628,79.0878775 193.828791,79.0389337 C194.076142,78.7919208 194.075374,78.3919587 193.826486,78.1464753 L193.826486,78.1464753 Z" id="Fill-11" fill="#FFFFFF"></path>
                    <g id="Group-15" transform="translate(193.359011, 62.283525)">
                        <mask id="mask-4" fill="white">
                            <use xlink:href="#path-3"></use>
                        </mask>
                        <g id="Clip-13"></g>
                        <path d="M4.60327847,10.3772787 C4.73841917,10.3772787 4.87587657,10.335938 4.99248369,10.2494288 C5.87514554,9.59180557 7.97793489,7.82028046 8.416563,5.59094549 C8.7270005,4.01617144 8.77642338,1.99430549 7.98642944,1.04193849 C7.69298106,0.689011494 7.30918146,0.502212822 6.87518675,0.502212822 C6.23500593,0.502212822 5.68672079,0.822220383 5.37087766,1.37955413 C5.00561165,2.02339709 5.01256174,2.90073839 5.38786678,3.51319305 C5.5708859,3.81099913 5.96240783,3.90516404 6.26357854,3.72448991 C6.56474925,3.54381579 6.65973385,3.15490708 6.47671473,2.857101 C6.33925733,2.63202391 6.3408018,2.24694304 6.48057589,1.9988989 C6.59872748,1.79219545 6.753174,1.76616613 6.87518675,1.76616613 C6.89912596,1.76616613 6.93619312,1.76616613 7.00183289,1.84501967 C7.34470416,2.257661 7.5115064,3.5943433 7.16631843,5.34826033 C6.80182465,7.19787341 4.82413699,8.79484894 4.22642896,9.23964414 L4.21407324,9.24883096 C3.93220835,9.45859668 3.88278546,9.84980209 4.09360496,10.128469 C4.21870664,10.2930662 4.40944809,10.3772787 4.60327847,10.3772787" id="Fill-12" fill="#FFFFFF" mask="url(#mask-4)"></path>
                        <path d="M14.5527232,32.4264121 C13.1989994,35.6884987 10.1556308,36.3553087 9.41505974,36.3553087 C8.90615846,36.3553087 8.21346583,36.16851 7.79723246,35.6433302 C7.33698184,35.0630294 7.25203625,34.1596587 7.54625687,32.9561853 C8.20960466,30.2460735 12.3055263,26.8385288 14.6214519,25.2530368 L14.9002278,25.0639415 C15.2847997,26.7688621 15.6230375,29.8464468 14.5527232,32.4264121 Z M13.1665657,11.0502132 C13.3874242,8.33933579 14.2283855,7.37395413 14.960462,7.37395413 C14.9635509,7.37395413 14.9658676,7.37395413 14.9689565,7.37395413 C15.1666481,7.37395413 15.3295891,7.38696879 15.4616409,7.53625461 C15.6045039,7.69932066 15.9110803,8.26201338 15.6716882,9.97841757 C15.4492852,11.5715653 14.6608357,13.5038597 13.5882047,15.4797916 C13.2654114,13.8246328 13.0700366,12.2322507 13.1665657,11.0502132 Z M29.2444482,13.2068192 C28.9695334,12.9893978 28.5687447,13.0345663 28.3486584,13.3055775 C28.0312708,13.6990796 26.6953084,14.9247545 22.1368194,18.5244568 L21.76692,18.8169039 C21.3815759,19.1261935 17.696482,21.6326642 15.6214931,23.0413099 C15.2763051,21.9886535 14.5673956,19.7378826 13.9959435,17.3439504 C15.4801745,14.845901 16.6369789,12.2774193 16.9335162,10.151436 C17.1659582,8.48862161 16.9983838,7.36170503 16.421526,6.70561298 C15.8948634,6.10770411 15.1844094,6.11306309 14.9403839,6.11000082 C14.1434399,6.11000082 12.2522423,6.58159091 11.896243,10.9483926 C11.7618746,12.5966613 12.1302295,14.9056153 12.6360419,17.1288257 C10.8506401,20.0510001 8.61425454,22.8874307 6.83889182,24.6803917 C3.97236444,27.5765367 0.515079137,30.2453079 0.480328671,30.2728684 C0.201552706,30.4864619 0.15212982,30.8830263 0.367582713,31.1586309 C0.583035605,31.4350011 0.983824319,31.484763 1.26182805,31.2696383 C1.29657852,31.2428434 4.82027583,28.5235447 7.74858181,25.5653887 C9.31853066,23.9798967 11.3178408,21.5193601 13.0569086,18.8505889 C13.6468943,21.1189679 14.2839862,23.0665737 14.5264672,23.7862079 L13.8978699,24.2141606 C12.7897162,24.9728388 7.21574132,28.9453729 6.30836803,32.6591448 C5.91761834,34.2576515 6.08133164,35.5239015 6.79641902,36.4249754 C7.67444748,37.5327528 9.02276558,37.6184964 9.41505974,37.6184964 C10.5463805,37.6184964 14.1349453,36.7526387 15.7311501,32.9064234 C17.1242577,29.5509374 16.3960423,25.7820445 16.0145594,24.3060288 C19.1088954,22.2045438 22.1568975,20.1298536 22.5684974,19.7983625 L22.9299023,19.5120399 C25.3462181,17.6050092 28.6397901,14.9676264 29.3440662,14.0948785 C29.5633802,13.8215706 29.5185907,13.4250062 29.2444482,13.2068192 L29.2444482,13.2068192 Z" id="Fill-14" fill="#FFFFFF" mask="url(#mask-4)"></path>
                    </g>
                    <path d="M100.101196,81.0438068 C100.183895,81.0804111 100.269602,81.0983397 100.354557,81.0983397 C100.591378,81.0983397 100.817673,80.9623809 100.920671,80.7330437 C100.939467,80.6927042 101.379277,79.7208225 101.860437,78.9566143 C102.294984,78.2693497 102.864106,77.5678917 102.87012,77.5604214 C103.085139,77.296721 103.043789,76.9082671 102.777648,76.6938705 C102.511506,76.4802209 102.119812,76.5205603 101.905545,76.7857548 C101.879984,76.8163829 101.284549,77.549963 100.809403,78.3014719 C100.291405,79.1232012 99.8388137,80.1189878 99.7884423,80.2302947 C99.6486052,80.5403108 99.7884423,80.9048598 100.101196,81.0438068" id="Fill-16" fill="#FFFFFF"></path>
                </g>
            </g>
        </g>
    </g>
</svg>